<mxfile host="Electron" modified="2024-02-16T05:57:44.544Z" agent="Mozilla/5.0 (Windows NT 10.0; Win64; x64) AppleWebKit/537.36 (KHTML, like Gecko) draw.io/21.2.8 Chrome/112.0.5615.165 Electron/24.2.0 Safari/537.36" etag="7Tc7rhjksA5fyLUUe9KC" version="21.2.8" type="device">
  <diagram name="Page-1" id="2XWkQP5S-hDbL94sL5Vg">
    <mxGraphModel dx="2298" dy="1180" grid="1" gridSize="10" guides="1" tooltips="1" connect="1" arrows="1" fold="1" page="1" pageScale="1" pageWidth="3300" pageHeight="4681" background="#999999" math="0" shadow="0">
      <root>
        <mxCell id="0" />
        <mxCell id="1" parent="0" />
        <mxCell id="APLwThIm-aDqV8bCMrbt-1" value="Custom Dialogs" style="rounded=0;whiteSpace=wrap;html=1;fontSize=25;fillColor=#dae8fc;strokeColor=#6c8ebf;" parent="1" vertex="1">
          <mxGeometry x="1298" y="140" width="650" height="60" as="geometry" />
        </mxCell>
        <mxCell id="DkTPo7iT7qroyMghJYHH-1" value="" style="shape=image;verticalLabelPosition=bottom;labelBackgroundColor=default;verticalAlign=top;aspect=fixed;imageAspect=0;image=data:image/png,iVBORw0KGgoAAAANSUhEUgAAAosAAAINCAYAAABWAzXSAAAAAXNSR0IArs4c6QAAAARnQU1BAACxjwv8YQUAAAAJcEhZcwAADsMAAA7DAcdvqGQAAKvPSURBVHhe7N0HgBTV/Qfw7+5e74WO0rGh9F6kinRLjLGAHUus0Qiav7FGoxhLjD22GHuJBQWkSK+igiBSD45yHFxve7f9/97s7N3u3s6Wa7t39/3osLNT37z35s3vpq2uz9nnOODO4YDnAEkMqz1QW0gTe6r7nNR4wlAqzagisM4SRS6d+tkshCWxzSqHWoV6lYgu+Lmdk3pO7xxUexmewWKtQNFHkOgzmGzuwrBFdVxly8v71q4ZlSgrX+MJvn2nkDFzI01YSqTOK21Z9UfZGq9g0Dto9DmNEiz6CAAd3lFiSEFiPY4qYTgghWGVYdA6MrZ1lCURRTLPw2wTafKVhmUrm5U651C9sja4mZWpQggadX36nO0RFvoPEtU+8eE1VTNXx62pRya0rPxrDGHIoVZSKKx7FC6eh6YIF5bENqscanL1yp06z9xyykTZkpp/FM6vntvoHjS6xuvOEsGiMkQcQmrHia4B1ZMEeaAJbiqf6jhrPdYYJk27oc0vf1qLZlQyrESRx7ONJ5+YSf6EJXfqvNLmVZaRt5nOBSv/1vyj0PkJGCU1WPQKFL3PJjr/V3l/jxT1SFEdZ428PPCn6fOnPppX3oYDc4haE88DGdVW5xxq+hmbFa8YKkSRl0e1zxpW/6P2Ovslj2nP6tPH48qz99nEmq/e9yx6fvPgZ1Qg9Zi17twzIARhSWtY1HFLW0kGtZ56QETBqDncNqE6rzQsqW1y4cmeus3ceKusGan0qYGhe1Ao+RqnO/OsPs5jnUcwKPqc/yv9nrGU93dfAk6grY6z1mON9dBatrO1aEa528wqAutt46hp3lu4sGxoq8ndJlfnnK1XkTR9eUbidipj1UBQqg4GnR+ufzymkx/OYNErUKwOBkVPVHQ0EhMTEBMdg5jYGBgMhkZt+d1TQj40q+xp+sSy9hBRuDkPsU0tPGutk2aU1HBQQ7fGIRZts9lgMplgNltgNBphtVjEcOc6XcFj9b+u4WeeeZbbiULPQDE5ORmpaakoKKpApcmMKpMVFqtNnYAanneo4yykyMXQrDZfeeIqx+aSX+FOZ3OsV3VLs689PJQlabYQkd50tCbeBdpKyqYh9mL3rGqOrUKkio6KQlxsNOJjY9AmPRXFxSUoKy0VGe7McV8Bo+4MESwqQ0RRuAJFed9imzZtxBADjucVw2xhgNh03HcJ910lEnH3rc07T7zLsDnkWbjT2BzrVd3S7GsPD2VJmi1EpDcdrZF3wbaCMmqIPdk9m5pjyxDpYqKj0LFNBqIMOpw8macOFfmuZLwz9+W/eqVPFIEzUJSfDqQkJ4s+A7JzChgoNrnm1II0p7RGCuYZNQzWpGbGu8BaQeQjN7kh62lDL48gYjwrso+fhNXmvJrsfMi5JiZ0/auXQ2oCRefpSXnpWZ5RpHDhLtF8uZcby5CIqD4toTNc8cSWteEdzy9EWmqqEgO6x4SuEtC7CsI5EEhMSlTuUeQZRQqO3G2563pq7nnC8mzulPbc1bhT5PDetVhGQWF1bnzyDGN+cQkSEhOU766Y0BUw6uU/1e9WFJ/yqWf5MAtRaFwBkquj5o1l2NypbTxFGu8mUpZRKyinhmhR3LOJLVTDk7GfjAFdkaLrkrT8X1+d+2Kg7JWvx5FPPRPVj3eLSM0Py6+5czXvFIG8d69WUFgNfVRwLc+7o7qpMlkQGxvrrIrVJxGdVVN32ulnKL3O4Q5069oNv+7PkV80pSQnIDpKfTYmBPK1O6Vlleo3ah3UCkdumlOehCOtzbXOhJ5uXwe2YJeidVD0nl+ZjkfQyOSzsFqH+uzlwWRTfZbfmvXp2RWHsg+JPl31E9HyUwkWXZeh5We3bl2xa/9x5buW555+HD179VS/+eb6UepjufnVAWpFaQHuvvf/oNcbnAOoBeOu6l9zyZ9wpLMl1J3gtsHXQS/Yrdc6YGrNr7b7FGlcBdbKyqYh9nJ/WdYQy2+NzurZBYcOZbsFis5cVp6GlqrvWwxCWmoy+pzR22931um9lO68scMxeZyza9smM6T1UHMky5dlHFhzOTK0siNYg5H5Fll5p+yV3DUjT+RVlSbREJvsrzp7L/+xBx/A4b2/4tiB3T47OU5OE2k2rFiCkcOGqt9qk+PWL1+sfmsorqvNok/t0Z122ulKr2tAMGcW333zRZxySk98uXYfdHqHszPIzo5p/XqhQ/tUlJdXKNMmJibi8/UHlf7uyUbMvuYmGAxRynct119zJR598D71G/D2ux/igYefUL9Flp0/rkV6epr6DSgqKsbZg8ao34CFn78vxqdi9IQZ6pDa3n79BeXz2hvvUD4jn/su6r5Lug+nGq580WoeIz3fmjp9Lake+d8WXzUi2K2va21STxQQRYz67PHBVGe5fBkMnjf9Ahw/cdI50EuGOI6vWbYYXU7row6JDDIYfPH5p3HbXfdiw+Yt6lAnf+Pqynlm0XUZ2pm78jP0Gw8FsQgxswEHS8pxqKwM2cZSHDGV4KilGBaLXQSeolP/czHEBPcqnr89/BclUOzc45zqrt85dSs8uSwZrDW2i/9wdXVaf/jxZxzL2oFhQwYq42b+7kq/gSIReWtJ0UxkbYuSGtksh6Mj0lCfvSSYqiWXbzAYlECxtLTUZ3co+7AyTaSRQaAMBmVQ6H6GsTECRX/qFCza7Hbls21mLHQxVpRYS5FXVYATlc6fitF5lV5cehUS2hjVb/5de9XlStDlTgZczYU8O7h0+Uo8cN896pCWSO56rs5dfXb5lsxXXrnwKNryRcZ+EfZUsKpTI5FVqyVXL++AsakDRalOwaKrUH47cRQHi4+j2FqESpTBrCtXhjvUVkmegZQS08qRkOQc5488E/jTz7+o32pb9/03yiVqF/fv8lKuPKMnO3k2US5LBp4DB/RVhrmmk5eNXdPJ+V1c87jGyX73ZbrOFAZj3YbNyqVnSS7DdZnZfXn+lqmVRsl9fvdly+1zDZfzh48s88g4OFJz1tLqEPcLRTBHdNeRP9wdNamG2DtacrG5B4xNHShKdbwM7VQpgsPoeAui4yyIijUjWnQKUWKuQFE6o+2p6JXWQ/3mX35BgdoXPBl0DRk0oPpSsDwTKe9xlPc6yuBTDnvznfeVwEteJnZNV1RU4nGZ2nVW88FHn1T6Jfk91DOFO3/9TfnZHG/yrKNr3cp9mD6W6S+NcpxMi2vc5EnjleHSn26/ufpyuPs9k+HDAyPVF+tQqxNJR3sGjJqOHtgdVBcqucc35l7f2MtvydSf+1P3CvmQSwg7iBIkii46VnZuwaIoDffF9ErvqXTBaJOZqfYFb/MPPymf3mfhvHXv1tXjIZK/PfmMGNZF/eZ8kEaSgaXkmtb9TGEwzu5zJopLStRvnlxn/1zBqDd/afQeJwNHl4OHDuN/H/9H/RYpuFv6F8LORi1EePYJ7ol1xF3Up1N6nhFUV1f1qa/BFFlz3B/cLz27X5JucDIDlUwU/7geiRb9dTqz6OIMFJ1BYoz8jHEGi84nq2tWYrZYUFlZpX7XtvDbJcpl47qQZ9NksCcDsVAeatEK6urjwpnTsG9/lvqthkyb6+yfKzANhiuN8klrLfJsqlxu+C9De/PeLeV3V0fNA8uqYdUvP5v13hMo4ZG4Ya5DGTUb7hFIS+B9j6L3PYxNoW7BotihTaZKDGvTE4PTe2Ngymnon3gm+sb3UYY7J3Hu9TJutNvt1Q/F+CPPEMrLxt7Bjiv4k5dkR48cpvTLS8/yTJs7eUZQBmOuM3EHD2V7nBGU3133+EnyMrCvoK4+ZFrl+t3PALpznQUdd+5I5dNboDTKeyld3C9Du8iAUQrlHsvGJ+uCq3Pn/b01aW5NWWsuq8ZQt/xs1qUQbOLldN5duDFgbHINUezuxWaz2ZTX47h4L79D+/bKNJFG62GWpg4Y6xQsyrjvzNNPxU3jJ+GmsZMxd8xU3DBmFq4fdQHOOP0UJCQkol27tsjIzEB0TLQSLOr1wRW9PEPmev2Mq/ty4SJlnLwkKwMkOezNV/+pBFaSDIxc08pLsc/961VluAweZUAph8sHQOQrbOS9ja5pJa2gLhRyne7L1LpnUAbCrulk4OuLvzRef/OdyuVr1zj3y9DuD8XI/HMFpZEvUo4GTam5HnlaWzk1ttDys9nmfkPs4pGw8QwYm1xDVB1Xsf3nvQ+xetlij3sq3V/KvWXt98o0kUSn0+Hpxx+pFSi6uALGfzzxqDqk8eh6n3a6yEv1bd3in27dumHXAf8v5b7r9pswoL/25WK9Xq90Mkp3/8WWX7bvxNPP/Qv6AC/lpuDIs5jbd/wasS8sr5vW0CI3521s6rS37Pqg87F9Wlsc7EHT1/xhjbUacuWRUB3CmpmtV32LPlCxRULV8kUGjE35y3dn9VBfyi0yTLlCLNYv381dp2BReem2Xb54OzSysHQiiNTp6nWrJAnyTKl8ebm87N58ziKGIlJ33YbSXLcvHOluuXXBeQDz3D6trXVOG5hr/mCnb1SNkYhIqA4RkbmRx7toGjKbGqrYtdIUCdUqEmgFi3V7dY4I9uTZQfmzfaF0ch4GinUnzyS6LjXLQFG+4qdlBopSQzYzkailbx8Fr4XWhcbarEjILkYWtfjKkobMpsYudrbI/tXpzCJR02kNrXJz2sZwpLXl1gHPA5T7D6TWFuzBzLWMsB38mmrFkVAtGGFU0yqOpsiiUKtCoDRFQtUKlwY9s0hERJGrKQ7QYRcJG9mao4oIEmpVCFRsrWL/CRGDRaKw4tGGWpDWeJTlLtwssdhCw2CRKCxkU9Ucmyv+zU0aWnPVYOThs/ibskrUZV0stuCJYLHmfkVmHEWWllojuaeRL8002pLJbqZJb1DcraurQriqRLjW29IoVVn8U12lRQ/PLFIE425PRM0IA8aIEMqRg0UWHAaLFOFcfyu25MCxuW1fU6e1JZc91UskVg1GH82OLDIWm38MFqkZaYlBg/s2yX73LpI1dfoiPT8obCKxajDyCLu6VAv3YmOL40nX+7TTnL8ko96z2L1bN4wde64ykoiIiIhah9Wr1+DgoUPOYFl5x6LytkWeWSQiIiIibQwWiYiIiEgTg0UiIiIi0hQ5waKtChWVVvWLtqqCwzh4uACV6vcGFWQaWrNGzX+pmZVBo+dHvdhRfuIgDuaUQDNHHWYUHd6NnTv3INfYeHflR3Y+NS+Rl5f+61md0htKO9BEdTiiNEY7Gcltb4C0NcQ+wTbKv0YPFq0nf8KSL7/G11/L7ht8u3gZ1mzZicPFZrcnj+wo+m01Fi3/GbkWdZAGe0kWtu/N0z741VnwaWhVHHbY7Wq/4Mz/fNjU7yHzWp6nZlAGPvOjMepjwzCd2INfj1SInPXFghPbvsea3UWwWqpQ1YgbUe96o8VvffISyrSNpQHSYC85GHF1zl89C73sQ2kHmq4OR44Gaic96mIkt70+0uazHQ6xfWmIZbQiTXBm0SF25zboM2IkRowYgoF9uiPVchRbv1uIFTsL1AZPj/SzxmL6eQPRIVoZEAaRkIYIU5WNdQtXYHdZA/21HnB5EV4GDZ0f4WYtwtGjZnTuNwT9B/RDt5Rm9rKIUMojEsqupdWfRhNCO9Dc63CdNEA7WasuRnLb65W2htiPuC+GrIkuQ+sRn9YGbdu2R8cuvdBv1PmYOrIzjLu2YFeBGsfrYhAb45YcEfWbK8tRbjTDFqA8HTYzjOXlMJqsPl9vZbdUoqKiEhbxV4TDboPN15+/Uq002GA2lqOi0uLzL+ZqwaZVTGezOyewm42oMJpg9TG95vYEmt/HtsntVWcJev0KMa1V/NllFwu0262w1co0B2wmo7LNtfLGV34EXJ6qLmVQvV1iHVUVIt9q/jZ0ln1VaPksea83UPrFOFfe1nCI6d3y312gspL8bLvdUoWKciPMPv4Mrqnv6k95+iK2x26zwGIzQK/zTHvg+ifywizqjlaB+C0zP/VGCHrdIvOCqk9SgLLzmZe+ttV9WFXw9UzhLw1inGb7EWz9d69nwcwjaa23ejsdynZqlVVQ9cyLz3anen1uee3dDgi1yknMp1WHa7GbUVlRu14FVd+CKetQpw+6rdYoAx/543MbxXKCbot9LDNw/vipI4HqYfUyani3gcp3ObMrbVppr+a/fVHUcxn+2t5qgcpXCrV9r84vkX5/7W8j0fXufZryhkXnzu5Q37M4VhnZEKwnf8TiDRYMmj4cndz/YnGUYc/3S5HVdhzO75uJqqxVWJrVERMnnY74/F+xZsNuFNmiEQUzLNEdMXDsCPRI1sOoTNdBTHcGkh1VOLFjAzbuyYctOgYwm2HIPAMjRvdF+1i5DiOObl2NzQfLoYs2wKHPQJd2Yh79OZg8rDPEHB6cy1bTUPgb1q3dhQKHaIisVsT2Euns3wYGdVoXq5+0elOWfyAFvVNPYu/RKmXntsZ0RP+xI8UwseQA2+N/fh0KflmKjVX9cP7QjlCy2l6IX5asQfk5UzHy1NjA63djk7cPrMmCURyEEBUNQ3w3jD5/IJKyV2HZgWR0T8rDoZOiARRpRHofjB3XB5lR2vnRtXKbz+W188rQupSBnGfZgUR0iT2J7EITLCYH0s4cijN1+/DjvlJRt8V2xnXF8AnDcEq8mCFAPlt9rHdSp8NYppEfsj6OPceI9evL0GfqWHSX6xDsRTuxdHUhTp98LronOIc52QOWla80KNsu0p67fS027isBovWwWmPRZeh4DO2SAJ2jEkd/XI0tor4jOgp6Qxo6ZVbhpKGvqO+dPOq7o3gnvlv6K4pl46PTw5B2Fiad1wvmnf7q32qRz0li+3Kw55gNp4yahhGneO5FWuk2KWWkXW8C133PdXfq0xnFu7MD1iepVl1OENNOFtPqtfOy0se29jNvCK2eudFKQ0aRdvuhnZerRZ1r72wDbcXYu24N9ujOwLmjTkNiSXD7jL92y9lOJKFH4kkcOGESBy4z9G37Ydy5ZyBdLiiEeiY59+lUnJaSh/3HjbCLdFlj2qP/uSPRS7Q7vuqVzGtXOyDbeV/lNCQlC0tr1eGzke7R9FpQuHsj1u88AYvIdxFZIrXfZEzsHR2wrQ2lrEObPvD+H6gMnHmq5o/GNo7NOBxcW6zWRWdbVpPngY9F2unTbL+UMnGy5W/Dd+sqcPaUUegSJwaYDmP9t1thGzgV53YTmeoowa5lq1F8xmT0t25S0jaubwXWa6Tdb/viRmtfDLgMf22vc9GqxmnffbVJ3u1vQ1i1ejUOHTwk9in5jkXxIbdO9BgyMzMfVqdRpKeloZsIGBuKveI49h+xo9NppyDZvaboDLAVHUJ2ZRv0ODUFDtG/vygZPXq0QXSlEfpTB2H4oD4484wuiDm+A3sq26FHhwRlngNFopKK6awH12Hl3hj0m3geRvU/C2ed1gm6Y9uw/WQSuoplmrLWY83BRAw67zyM6NcHp3e24eCOLFQkdUXvU1JqNaAWVxrE0f7opk0o6DIR08/tj7POOg2dk6MQExPlVSnE9vlJq3e4KJe/91ABorqNwoTR/dHnjO5ILv4N2w4bcGq3TFgCbI/MI+35M2A7sR9HbO3Rq3Oyc9tEo35ifzbM7U/DqaJRDrT+GLeN0yd2QK9uCSg8VIEuE6ZhzNmdkSQ2SC5jz8FCJJwxFuOH9cUZXeOQv2sXCpN7oEtqlGZ+9OrZA719LM9bXcpASVNWCdIHnodxg/ugZ1opdm/fg/zYszBh0nD0PaMDLFnbkY1T0KOtaIj95rMB2Rtrrzc2/RTN/JD1sZcIXhyHdyM3tiu6pcvmwYbCfdtwOPZ09O+eIhprdw5U5vorqyoc8JEGue2VBzdgtWgwhkyZiGHnnImeKaIR+vE4krqfCkO2qO9ZCRhw3iSM7HcWeney4dBOV31X16PSxbVFz97pqDhYhHZjZ2DiOR1gP7Q+YP07cKIKid1HYPyYc3BKoggU9O6lUaGZbmuAelMRRN13X/epGZ3Qu0fg+iRp1WWjn7yML6u9rbaS7JDqmXvOaKVBu/1w4KBmXmY720BxQD2+eTV2WHpjzGhxkI7Szv9Q2i3Zxu45UID4PhMwcXhfnCnWk7/zVxSm9BB1U5SVbFeDrGeSs90pRHS3kRg3UqTrjG5IEu3Oz2q7oyv2ndeu44FNq5zOGIgBZ7rX4Y6I96oDVYc3YcV2K06fMBljBohtPbMn2sSKg/CxTQHrWyhlrdTvoKePCbD/O9tqf2VQ3U6K/HH43EYDou2mkNpi92UGOrYq+aOZPlNQ9VAvDjglB/ahLKOHGG+AKfc37Cuyw2xLRhd5fDYexc59FnQ5pycSy51p63X22ThL/OXtK+3+2hd3dT22+WsvUjxW0Tjtu682ybP9bRiHsrNRXFxcK1j02rXCwMe2RmV2Q3cRylvKi5F3vADW2FhYKoyeN3Q7KnD8UBGSep+N7q7KEJ2Onqd3Bk4cQb7ZiNzDYnzPs9BFjVINyV1x2ilJMMgc8EcEsrFiZzPm5SC/Up7rjUJCYpyvpAaXVndxnXBaj1Rn8KBPwCm9T0VscQ7yKgNtj3OQ5vxVytjAgp5fVA61Iur1erjXSV2iCJxOTVQqjz6pAzqliQOv0SR2EX/5ob08n0IoA0mfdAq6tYsR43WIa9MBGfootOlxChJlIg0paNcmDiZjpQjhAuWz1noDpN+Qjm7dk1F6+LhYg2AtQPYRKzp07wDxh3iItNJQgWMi2E/s2gXJlnKUlpbBLPK/ra4AJ0pKnfW9Vx90da/vp4rGymemKU2AQq83iLbAGFT9sznS0KWrrD8GGGot2H+Zadeb4Oq+x7qjRBnUKg8HjPmHkS0aO1eXWyr3RF9l5y8vnXuvr20Nvp55811/tPeXAPXfUYVjP67BNmN3jB5zJjKUbAt+nwnUbumSu4i20vkHrzy4dhRlVVFhEt/UdjXoeqaK9dXuHK9udzTrlWjnNcup1Fa9bc46rH6pZkTOwTzEnz4Apyl/wAn6WKQk24Kqb6GWdd3rhm/aZeBOaxtj694WBzy2Ogdppy/IehiVgc4dDCg4WSLyxILC3DIkdm4LfcFxFImKWFVwAhUpndDW/Sy9DFo00u7vuOSpLssI3F4Ery7tu3ab1FRknoSHiLSLi8yIT01ynqZ1YzrxC5Z//TW+W7MFv2adQJmldnHDYUKFaGgSEj3/gjfEJyJW/EVlMleholKOj3PbSD2ilL9ufCzPQxy6DB6F06MOYd3CL/DN6p3IrfQ9T1BpdWOITUCcs41V6KJjxfbbYLUF2B61PmrOL+tcEOo7v9zRDDFxqLm1xYCoaPFF3exQ80Nb8GUg6aNj5Fl79YvYlURXc/+NSLMILnTyXguRl/7zObT11tAh5dTuSCnJxrFyB8x5h5BjOBXd26iNbUg00iDSZ6yyiL/Gf8DaNWuwRnbrdiJfHyP+LK5U63usZ32PFgdR9ZtfAfNF/S7qT7zmJvnLOz/1pkHWLTlgKs3HyRMncELp8lBq1ig7f3mp3mzka31B17Mgae8v/vLSAYfxMHYfjcUZg85Am+oGNPi6G2g/Nch2wa2sopWyEuu1u9rV0OqZITYe4vhYzdnuWKvbHc2yFe18oHLSJNJaVuFAYnK8W1qFIOtbqGXd0HVDswzUIQqtbRTq3BYHOra69kfN9AVbD6OR2TEDllyRNnMhcgrj0blHN3TQ54s/BKpQlFuChE7tkahO7Z+f9iVo/tuoOtfDWurQvvtpk5pKdbY0taqcXdhbkoZup6Z6JsJRiqztB2A4cxJmTJuMcaMHoVuyjzLXxSAuxgFjuedfDrYqI0z6OMSLoDAqyo4qkfk1462oqpQ3rfpr1lSxbXDm6Gm4cNZY9NZlYeOmAyhXR1ULNq1u7FaLR2BmNZajSvylnRAbYHvUCqI5vzhgyL+sbRZrzV+udgvMXnfc+5u/3uqQH34FUwahEjtewHyu63oTO6NHGyOOHhON3aE8xHXrhgy3A6S7gGXlKw26aHHwiULqaedi2owZmKF2M2eej0Gd4qrrew1R3/3d6O0umHyRAu06dcm7hlq3aEnSewzEkKFDMVTpBuO0mkjKk95PXnYUjbMURDNRL4H2F8281EGX2B39ejuwa/V67C91O1cVTP7XZz/ViQNoHeqZ73Ynvqbd0cprf3XeVU5a5LzRdlRWeNaroOtbIwqmrQ6K1jbWq4wbIH+CbAdi2nRGhikXx44eRUFsJ7RLTEFHebbxxHGcKIhCh/ZJ6pRhFkx74abB2/emapP8aLJgUT61ZjabUFmWj+xfVmHphlykDxiKXsleW++wwSIf25K5LdiNx5B1rAIO9Xs1XSI6d01D+b6dOKhcahKsxcjanYOoU7uhbUwiOnRIRPH+3TiunOp1wFywD3tyqkRfgF3GXoH8k2WiCRQZFJeJUzqniD/TqjwaO0WwaXVjL8vG3mNGZ8NqKcSB3ceg79RFSa//7XEO0p5fj/jkRNjyjiGvSm6fHRVHD0Bsrgft+ZXRnsRfxlE6CyqrRJX3/ovWl0D5Ecrygi2DkAXI52g/6w2Y/jh06N4OVUf2IKsoEd3FH0K+a0KAsnJopMEh6nSnZJRk7cYxo5oRDjMKj+aKhjgJHTqK+n5gD3Lc6vve4677FwIJrv75pZXugGVWx3WHUp9qTesnL/0uqB680+BvfwmYl9Foc/YYjO5Wie0rNyKrTIwINv/r0G5V09WtntlLDmGPe7vzm2x3ugauV6Kdr3M5ibR2EvWqdO8vNfXKZkRhsaH+db1egmurg6K5jca6t8UBj63OQZpCaQfi2qJzWiVyDhYh7pR2SEAU0tqnwnT8IPL0HdHBOz6QQtnvtYS8jFDqYSO07xoJtJbm4nhxsG18/TTNAy77DyF7/17s2bMXew8cRbGuHfqMHIW+nWpOncubSw/Im2t7dka6vgC7f96OPQf2Y2+2CeltDSi3t0GvLqlwKDd3O2/CTc5ojxTjAfz4g5h2/z789lsWSlL6YNSgrkjUiwLLSAeO78TWbb9h/4F9OJCXgFPb21Di6ICeGjdiK8vunoDcjcuwdvs+7N+3G/tORKHn0IHoluQ1hy4OCX7S6v0HmFz+wcpUpBXvxA+/7MZvuw6Iv6Z6Y/iwXkgx6BDjd3sCzS8OH6KC2nN2Ydv237Bv/34cs2WgDcrgaNer+qZof/PXYoiBriQLO3fswt4jJmR274iYkpr8d96LZ0Xx4SwUJXZDj7apIp1+8sPH8pT7edyEXAaCRdaJYrc02UpxZN8JxHbthfbxsrERO2tuFo6jI3qKnTHObz5XIltrvUHkhyE+BmV7duBE+jkY2LN2HXDxW1YpZo00RIm0t0FMwW/48aedYl86gD2/iYbFkoluXTKRKut77q/4cZtI3759yCpU6zvao6frRmt3tjIc3ZeLqK690SFBH1T9cz1c5vs+TO28U8pIq960iUNsXdYdRH2qVmvaTshso5WX6c6HLrzWF1o9S6r9l7h3GnqIA69BY385NQbHAuZle2S074yU0t3YuqsQiZ0zULJ1eeB9JkC7pbSx7tspy+qIq6zikRBiPZPpza5KRUrJr6It3oVdomyL4ntj2FBnu+OrbKvbgR5tRb3WLqcYu3sd9g4sdIhN7yDq1X78uPUX7Bb72Z7f9qMkuTtO63VqgPoWWlnbQpw+NmBb7a8M4pQHalz7U4qvbUw5HWe1KQupLY4RAb1rmckB90d/6bPjcJBtt/yjJ8ZyDDsPAj37n4FMEYgaYuw4+es+VJ5yDvp0dN4TWVMfxPqCaIc92xfPy+mKkJcRJ+IJP/XQawUN3777apMqcXjLSmw5FqM8KBZbayPrRusBl0Z/dY7ybiCbXYncdTo99Aa977MtcjqHDgb1blOHtQqVImCOjosTB1yb2NUMYlzt6SQ5rbHKCn1MAuJrbjhQOd8DVeWIRUK8A7mbl+KXuOE4r1/t10l4LFv89W2uqoTZEY24uFhEeS/WjWZavbhedzBpYm/EymXrRJriaj+pqLU9wc1vh9ko/qrUiwOCGAe7Tfw1aVBu4g12/Z7ke8OqlOUpafGV//L9UW7b7D8/vJbnrS5lUCtN8v2G4i8zvXO7FXYxjWh23MtFs974XW+A/LCewNbFm2EfPAVDA10mE8vSKqtA224zG0UeOxAVG4+4mhuHBPf6Hg2dV9l48pFPgna+1C77WrTSHUS9kUJfd4D65MH3tD7z0tf6ag0Lrp55qp0Gzf0l2LyU3+XL6HRRMOiC3GcE7fXW3nZZVg4xXvwNrgqhnlUvzwFLpVG0O876Xr10H+vzNcx3nfddh73Z5bZW2REltjXWLVOCr28ByjrU6RX+9v/a2+9RBj7G+9pGzTJWBGjLhFD2R8/0BV8PlWUpWVUTGyjLcuWFc4DX+oJIu786qajbMrTbXm8N3L77SJ+YECZHjChv9XsD0Hp1TuMHi2FkLi+BNT4VCWpUaCvZgzUr9iF51BQMbt+AuRuk6mBt0umoy50Y4Z6fAnHAeGgdlu9Nx5hJ3u97IyIiimxawWKLPpzZ8rbjuy++wDdLlmHZkq/x5dLfYO89FH3DEChSy2Yv+BWrlyzCdz8Z0XXA6QwUiYioxWjRZxbl9lgry1BaZoQZsUhKS0WS+6n0JmY1FqHUHIuUNHkbb+jCPT9pc5jLUFBsQkxqBlJiGSkSEVHzo3lmUY0RFTJgVHtbCB2i4lOQ0a4DOrRLD2ugKEUlpCOjHoFauOcnbbqYZLRp14aBIhERNWuuOLAmJnS07MvQRERERFQ/DBaJiIiISBODRSIiIiLSxGCRiIiIiDQxWCQiIiIiTQwWiYiIiEgTg0UiIiIi0sRgkYiIiIg0MVgkIiIiIk0MFomIiIhIk17+novycy7Kj0NX/7YLEREREbUmzoBQjQllrzMu5JlFIiIiItLEYJGIiIiINBkyMjIfVvsV6Wnp6Natm/qNqPlzuE6nExE1MJ1Op/YRNX+HDmWjuLgYOvGfqNzyX6WO88witTgyOHTviIgaC9sbag0YLFKLwMaaiCIB2yJqiRgsUrPFRpmIIhnbKGopeM8iNTt1bXjZYBNRQ6nrvYq8x5EiGe9ZpGYvlL/QXdO6d0REDaWubUwo0xJFCl2vXr2d1VZWYPFf927dMW7cWGUkUSQIpmENNI1rPBtpIqov19nBQGcJgzmLyDONFElWrVqNg4cO1jqzyMvQFNGCDQLduQ+T/f6WEWj5RERaAZ2v9sXXtIECQgaMFCm0LkMzWKSIFEqAF+p3d/7GEREFEmog6G96Bo0UbgGDReWQKf5JT2ewSOGlFcCFEhQGmtZFazgRUSD+AkF/4yTv7y5aw4maghIsFhXLiqjURaU2yk/XPYvKQVN03bvznkUKn2CCOu9pfI3Tmt57XrvdrvYREfmm13s+C+oe0Pnq1xov+RvnojWcqLEp9ywePCgroVIPlZooPxksUqTwDuQk72G+Aj/vT0n2u76npKSgX79+6NKlCzIyMpCUlIS4uDjlAMBGmYgCkW2J/MOyqqoK5eXlKCwsxOHDh7F9+3aUlpYq0ygHVrf2xNXv/Sm590ve3yVfw4gaG4NFimjugZ6L+zBf/f4+27RpgxEjRqB3795ITU2FwWBQxhERNRSbzYaSkhLs27cPGzduRH5+fnWQF+hT0up38TWMqDExWKSI5Qry3LkP8+53fff1edZZZ2HkyJHo3LkzoqOjleFERI3NYrHg2LFj2LBhA3bt2lUd6Pn6dPVLWv0uvoYRNRatYLH209B8wIXCzBX8Se79rvsLfQWJ8gziRRddhFGjRimXmnkmkYiakmxz0tLSlD9Ye/bsibKyMhQUFKhjPck2K9iAkcEiNSXX09AyQHQPFvkLLhRW7sGg5P7dvd9XoCg7OfyCCy7AH/7wB+WsOINEIgon2QbJtki2SbJtkm2Uq72SXJ+uNk1yDZPc+yXv70ThwGCRwsZfo+je7x4ounennHIKbrvtNgwZMkR5YIWIKFLINkm2TbKNkm2Vd/slMWCk5oLBIkUcV8MoP70DRUkOGzx4MK644gp07NhRGUZEFIlkGyXbKtlmabVnrn7XJ1GkYbBIYeHdKPr67t6AujrZsJ577rmYOnWq8kocIqJIJ9sq2WbJtssVHLo6yb3fJdB3oqbEYJHCzr0RdDWarmHu32UnG9tx48YhNjZWGU9E1BzINku2XbIN827XJO/vkns/UTjp1WqqdkSNT6sBdA13/3Tv5GUcBopE1Fy5AkbZlnm3b5L3pzet4UQNSa2FssJV9/PMIoWVd+Pn3li6d6eeeiomTpzIQJGImjXZhsm2TLZp3u2c5Pp08f5OFA4MFqlJaTV8rsbS1bmGuT5nzZrFexSJqEWQbZls03y1de6dL1rDiRoTg0UKG/dGz7sBdH2XN4NfeOGF6NSpk/KdiKglkG2abNvcn5B25699JGpqDBYp7FwNofx072QjKn+ZpW/fvsp4IqKWRLZtso3zfkJadpLrkyjcGCxSk3Fv+LT6Jffv8mZwvnCbiFoi2bbJNs7FX1vor80kamwMFimsXI2e/HR1kvxLu0+fPspN4ERELZVs42Rb53452r0tdH0ShRODRWpy7o2fd0Po3kiOGjUKUVFRSj8RUUsk2zjZ1knu7Z+L+3fvcURNhcEiNQlfjZxrmPx0da7vmZmZ6Ny5s/KdiKglk22dbPP8tYnefA0jaiwMFils/DWA8i/t6OhopZ+IqCWTbZ372UVvDAwp3BgsUkSQjaF7d9ppp6ljiIhaPtnmebeDRJGCwSI1Ke8G0L1RdH3KF9ampqYq/URErYFs81w/PODeJrr6Xby/EzUFJVhU6p7oRLVU/iNqSL4aN60GTw7v378/DAaDOoSIqOWTbZ5s+/y1jd60piWqK2cMKDrn/06ih2cWKSzcGznZ7/69W7duah8RUevh3vZ5t4vu/URNjcEiRQRXwyi79PR0dSgRUesh2z73tpAoUjBYpLDRahCTk5PVPiKi1sNX28fAkSIBg0VqMq4GT6vhcw3nz/sRUWvkavsCtZFa44kaC4NFCjv3hk/26/WslkTU+si2z7s9JIoEPCpTWLkaQ/dGUafTqX1ERK2He9vnq20kChcGi9TkvBs/NopERDW02kS2kRQuDBYporAxJKLWjG0gRSIGixQWbBCJiILHNpPCicEiNSn3Bo+NHxFRYGw3Kdzko1dKj/Iv6yCFSSQ1gA67FabKSlRZbNwliCgsGBRSuMiqV137xBfZzzOLFFaR0iBaC3/BF8/cjSvOG4p+ffrg7HPOwTnys98wnHf5n/DM13tQoU5LRNRUGDRSJGCwSK1cBX57/w5MGXsx/vzyV9hy2ISkU05D30EDcFb39kjSleLQloX435qjMKtzhIW9Cid3fY9Fm4/Dpg4Km0hKCxERNToGi9SKlWLLs1fh8oe+xSFdD0y/712s+vknbFi2EJ9//Cm++m41Nv+8Dev/9yyuH5SG8L390Y7DH92E82fejjd+Lg3zpfFISgsRETUFBovUStmQ881D+PNr21CRORrz3/sc/5w7CqckGNTxKl0s2vWbhesuH4Q0dVBY2G0iTBMiITqLpLQQEVGjY7BIrVPpZrzxwmIcQxdc9LencX3f5DqeOXTAWn4S2Xt/xS87diPreCksmkGUQ8RZNtjsNRNYyk7g4O4d+HVfDkp9zegQ01srUWlSv5rNMItgzWq1wuZzPTZUnDyE3Tt3YvfBEyi3qoNraYq0EBFRS8BgkVqlk2vex7cHLEjqfwVuGNeuDjuCA6W/fY5HrhiLAQNHYsLUWbjowuk4b8xgDBj9Bzz0Px8PxOT+D38c1R8DL/wHtubtxef3zcLIoaNx3vQLMWvKGAwZNgt/+Trb7d5IC357/TIM6jMQs57ahHJUYceLl2DgWX3Q5+yhuPy1X92mtaPo5//g7hnDMGjUREy/4AJMnzQKg4ZMwR1vb0OxdzDXqGkhIqKWxJCRkfGw2q9IT09H927d1G9Ejcv1pJ/753nnnaf0N54SbH37eXz8qw3nXHMfbhicEWKw6ED+qkcx+7pnsCLbji5jL8Hsq67GldMHoWtSJbJ/2YoN3y3EFgzD1GEdEaPOhfLf8OW7i3A4qRNiNr+Fd/Z3wwXX3YA5M4fhFPsR/Lp7H7av+Qm6kbMwokO0mMGO0iN7cULXAd1Sq5CdY0TmOWMxun9v9OzRFaecNhRjz24Lg5qeOXP/hfUF6Rj6+xtx03WXYPzpSSj4dRPWLl2M7QljMH1QW0Q5U9KIaSGi+li2bJnyG9HBdJLrk6ghHDp0CEVFxTX1TA6Unz179lIO08rBWnTde3TH+HHj5GiiBuEeCHp3dru91ueCBQuU6RuNLQtvXXkBHv+xDa78z0I8OjJJHREcx4lvcOfFf8K3Rd1xyZOv45FZ3RCnjpNBVcnPr+HWuc9gY2Uf3P7hR7irb7xzVO7nuGHaPKwsiULm6Hvw1ss34uxE5yg4CrDivotx82c56Pj7f2Phk+OQqo6Sl5az/3s1Zj38M3r++X/45JbTa4I+wZG3BPdcfAe+Kjkbt731Du4cnFId/FoOfYw/Xvp/WKk7D//48mVc2FE9sDRSWoiofubNmwe9Xq8cqL0/vTvJ9UnUEFauWoWsrIM19UwOFJ+8DE2tj6UMhaUWwJCAtGR51iwUVuxf+C5W5erQ5aIH8BePQFHSI3XAVbjrktMQU/Ubvvr0R5SpY6rFnYHL/zS7JjiTdJkYJQLY02PsKNi9E8dE8mrInVbtrUWk56u3sDzHgDPnPIAb3QJFKbrbDMyd2Q36/B+xdGu+OtRNg6aFiIhaIgaL1Pro9DDoRcTjsMFiVZ7rDZ4jHzu3ZKFC3xEjp/R3O+PmLhFnTRqFUww25P32K457BFtip0vrjb7dEtRvNWLSOyAjFrBVlsGo+WCKF0cedmw+gApDZ5xzVhJKT57EiRMnqruTeUXQpbdBPEqRvfc41GdTqjVoWoiIqEVisEitT3QS0uUZRWsxck4a1YFBEvMcz6sEYtuhW8faQZZLXNuuaB8PWEryUeIVLEaldkCm5+lIhT4+DamxOjjkq2mcV+4Dk9sg02M7iE/umIrRI0Zg5MiR1d2I4WNx2XM/oBx2VJUb4R33NWhaiIioRdKrd5MpndLPAwO1dPp26HN2B0ShEL9u3Fv7MrE/DqvzbKTDBqu/KEq530P9dA5pHA678/U3sb0w7Y9/Vu538t3dg9nDM/kAChERaas+rIke+WyB+o1nFqkVSsRpY4crl4mzl36A1bkhXIqOSkGbtFjAdBIHj2mflTTlH4VyAjK9PdKqH4duBPK+y6RowFyJxMFX4KabbtLsrj2/t9f9lURERIExWKRWKXXYHFw5KBn2E0vw98e+QLbXpWJN+vboP6QbYh0nsHHhJuT5PLlYgV0r1uKwNQZdhg5G5wZ7XNgBm9XmefLf0AHn9OuEaEc+ftmwJ7SzpPXiIy1ERNQiMVik1im6N6589E8Yk+FA7pK/4IqbXsL64yafwY+1+DesXLYDRcq3WJxx4RUYmelAzuJ/4JlFR7weGrGjdPt7eP7j3TBnjsKc358N9cU59aBHQkY64mBB4ZFclKtDneLRZ8ZMnJVgwp6PFuCNLUWwqWOqWU5g69ItOB7iszy++UsLERG1RAwWqdWK7X0VXvj3PJzbHshd/SyuHj8CE/9wK/7v8Wfwz38+g7//9S5cd9E4DB52IR5aflKdCzB0uRgPPzATpyILn945AzOv/yuef/crfPPZG3h63pWYfvkCbDB2xUUPPYJLujTMXYKpvQegZ7IdOd88hvlP/xcfv/UPPP6R81dTYvtcg7/e0B9JFT/jxdnn45K7nsLrH3+L7xZ9hjf+fgcuGX8e/vhRVq2HW+rKX1qIiKjlYbBIrZgOKf1vxJuLv8KzN4xFj6QqHNm6BB+99TJeeOFlvPHBQqz5rQjJfabgD1NPR82rCKNwyqx/4NO378PMM2NxZPUH+Ncjd+PO+X/Hq19sh/m0i/Dge5/iyemdaz1QYoiKRZRB+5EXQ3QMonzsldG9L8X9d56HLrojWPHqw/jLE//FT4XqSJGyAXe8jfcf+z36ppVhx8LX8dRf7sAfb5+Pv7+1AscyxuOGuePRwWu5jZMWIiJqaXQ9evZyyPuPnL+oAfTo3h3jx/MXXKjhyLrl+vTuwvILLlrsZpQWnEReXiHK7dFISGmDDu0zkRzr728qO6qKjuNYbiEqdUnI7NAJHdJiNZ6AFttnE9vpes9jLep4MbfeoPe5DFtlIY4fy4Mpvh1O6ZiOWkmzV6Ho+DHkFhrhiEtF244d0SYp2seymiAtRBQy+fYC/oILhcvKlauQdVD+gos8nSL/Uesbg0VqbLJuuT69u4gKFomIwozBIoWTVrDIcwFEREREpInBIhERERFpYrBIRERERJqcwaLzljIiIiIiIjcOnlkkIiIiIm0MFomIiIhIE4NFIiIiItLEYJGIiIiINDFYJCIiIiJNDBaJiIiISBODRSIiIiLSxGCRiIiIiDQxWCQiIiIiTQwWiYiIiEgTg0UiIiIi0iSCRYfzp6HlPw7lH/mNiIiIiFoVEQPKWND5v5Po4ZlFIiIiItLEYJGIiIiINDFYJCIiIiJNDBaJiIiISJOuR8+eDudzLQ7xvwM9enTH+PHjnWOJGoCzgjk/vTu73V7rc8GCBcr01DSGLjkL0fpoxOpjRRmoA6nV0onOLv4z2ozK9y1Tdimf1DTmzZsHvV4PnU5X69O7k1yfRA1h5cqVyMo66KxXrromhjNYpEbnrGAMFiPV4MWnY2qnWbix121KkECtmzw0HK/MwW1br1f6GSw2LQaLFE4MFilsnBWMwWKkGiSCxUtOvQz3n/2IOoRau0PlWfj9uukMFsOAwSKFk1awyHsWiYiIiEgTg0UiIiIi0sRgkYiIiIg06Z2/5+Ko+VkXIqIIUlVVhY8//hhff/01li9fjk2bNsFqtapjiYiooVXHhPL5AvHBM4tEFNHKy8vx0EMP4dZbb8W1116L66+/Hkaj87UuRETU+BgsElFEk0/IR0VFITo6GgaDQfmUT4cSEVHT0PXo0VM5ySj+UU438tU51NDkK3Fcn94dX50TfpH+6pzc3FxMnDgRlZWVSv1o06YN1qxZg4SEBHWKGidPnsSiRYtgsViUAFMGlbKTQaZ8BYQclpycjJEjRyIlJQV79uzBjh07lHFy2TabzaN+yu8dOnRQpl+xYgUKCwuRnp6OxMRE5YynJKeT5PydO3fG0KFDsWrVKpSUlCApKQkxMTHKtPLSudlsVtIm++XniBEj0KdPH2X+SMJX54QPX51D4eR6dY6oWM56JgfKTwaL1NhcB1P3g7Crcw8SXZ8MFptWpAeLx44dw3nnnafcuyjrhwzeZDAWFxenTlHjkksuwcaNG5Wg0FXHvMllnHHGGfjPf/6jTH/48GElmHTVP9lAyoOzJPtlYPfqq6/i5Zdfxi+//KIsW07niwwOP/zwQ9x1113Yt29f9XJlpzS8opNcy5WB5ZdffqkMiyQMFsOHwSKFk1awyGs5RBTRZGDmCvrkpzxT5wrmvBUUFCjBnAzSZDA5duxYnHvuuRgwYIBy+Vp2crw8wyfP9smzjGeeeSa6du2K4cOHY+7cubjiiivQs2dPZRlyWrk+eYYxPj5e+e4a1r59e3Tq1ElZhlyuHCbPFubl5Snrdq1PDm/bti06duyofLrS4Fo+EVGkY7BIRBHNdWnYxV+wKMdJcnoZ3L344ot48803lc/Y2FhlnAw+27Vrh9NOO005C3j//ffj3nvvxZw5c5QzfaNHj1bGu69TzuMe2Mnvjz/+OJYsWaIEmPKsp5xedjIYdD/bI+d7//33lWnfeOMNJUh04VkhImoOGCwSUUTzPrMogz73gMuda7gMwuSZw6lTp2LmzJnKk9QyoHPdKyjvLZSXt2fNmoWrrroKt9xyC/74xz8qn3fccQd++OEHj3XIgFUGfe4BpLxnMiMjQ7ltZ9SoUUqgOW7cOJx++uke6ZWdPPuYmZmp3CfpjsEiETUHDBaJKKK5B4uSDNpkwGcymaofGJHBnOQe4Ml55OXnc845B126dMGMGTMwbdo03HDDDZg/fz7y8/Nx/Phx5ZKxDEAHDx6sPBzz/fff49JLL1WW7SKX7zpr6a1fv35499138fbbb+Oll15SLje7gkD5KdMht0Fy3w6JwSIRNQcMFokooskAyxVkyUDxt99+U54ilpeLXZ08QygDP/dLxTIQk2f75JlFGfzJgE8Oq6iowLJly5Qzj+7B24kTJ/Ddd98p444ePeoRyMl5XZexvclL4vIso+zkpW85n/u8ch2uYNab1uV0IqJIwpaKiCKaDLTcO3lGUT5EIoM7GSDm5OQoTx7LV9XIM3jyjKDrcvNf//pX5TKz7ORTx1999RXee+89ZXp5WVp2rjOTcjnPPfcc/va3v2Ht2rXKMLkc+SmnkQGgXLfsl533WUJ3cpycRk4vX/kjl+Eih7vSJzsiokin696jp/yzXb48R2ngevTogQl8dQ41INdBVX56d65LjO6ffHVO04r0V+fIV9s88MAD1ZdyfZFn6O677z6UlZXhv//9rxKgyUvSMsCT4+Sn63taWhr+8pe/KP3yJwTlmUTv+iiDu759+yrvYJT9s2fPVgK/DRs2KMGoDDLlfZBnn322mgJP8uEXGczKexXl63RuvPFG5Z5F+c7IRx99tDpIvOiii5RL45GGr84JH746h8Lpe/XVObJaKfVMvjxHfjJYpMYm65Xr07tjsBh+kR4synoRzBk4eQlaHlRlcCfn0TqYKg2g2zDXWT85j4vsd90bKclA03U/pBznWr73sl1kPdYa736W0f0ey0jCYDF8GCxSOGkFi7wMTUQRTTZY8uGSQJ08oEoyAJOBnivAk8PdO++Dq2s6OY+rc73+xrVsOd5FDve1HHf+xrvW575MIqJIxmCRiIiIiDQxWCQiIiIiTQwWiYiIiEgTg0UiIiIi0sRgkYig07EpoBp61gcicsNX51Cjc72SxPXKEfeOr84Jv8GLz8DItufiym5Xw2Q3qUOptZKB4onKE3hy18N8dU4Y8NU5FE58zyKFjaxXrk/vjsFi+A1dchbsDjtsDqv4xgMPOQ8SUTrnTycyWGxaDBYpnPieRSLSJM8mRetjRBfNjl11oEhEJDFYJCIiIiJNSrCoXCR0/dJVzS9eEREREVFr4QoI5f/OD+U7zywSERERkSYGi0TULDnEfzaHDSZ7FYw2IypFJ/stdrMy3PnQjk35XmWrmcYsvtvFf0REFBzlaWj5FKo83yj/69G9ByZM4NPQ1HCU+qV+end8Gjr8hi45S+2LbLJ9kgFglD4ayVEpaBfbDqcmdsWpCV3QMf4UtI1ri5ToVCRFJSNGHwP5/J4IF2ESgWKZpQxFliKcqDyOY5VHkF1xUHweRUFVPirtRqXuGXQGdU0NQz5FKJcp0x0MGdhGIj4N3bT4NDSF0/ffr0TWwazqp6CddY3BIjUBpX6pn94dg8Xwaw7Bogz40mLSMbHD+aKbIgLEruJ7GhIMiSJ4DO3JXdnOmW1mlFlLUWgqwI+FW7Ao5yvsKN6uBHcNETTKoHZ027GY2/s2sa5A767Uweow475tf0KppcTZSEcQBotNi8EihZNWsMjL0EQUkWRQJ/9rF9cBd54xDwvHfY8Hz3kCo9qeiy6JXZWziKEGipJsBGMNsWgT2xanpZyBy7tdhXdHfIZXh76DoZkjlGBRBnv1IdOdEdsGfVLPwYCMwQG6QeiXPoivqyGiiMVgkYgijrwkG62Lxm2n3Y23hn+Aa3vepASHjUX+9Ty8zWg8O+hl/GPgS+iR3Avmev+aTXCXnyV5Vp2IKFIxWCSiiCLP6nVP7IG3R3yMq3vMVc4sKpdEmkC8IUE5c/nGsPcxqcMU5QwhEVFrx2CRiCKGxW7BOWn98Nzg13B6ypnq0KYnz2I+1u9p/KHLbOVJaiKi1ozBIhFFBHlGsUdST/xz8OvKE87hJs8y3nPWXzCz88WwKr+bTUTUOjFYJKKIkBCVgPv6PNyo9yaGSl7+vves/8PZqX15XyERtVoiWFRfa1L9DxFR05Ivyh7f/nwMyhiqDgmew2FXLl/Ly8Xl1nIUmPJx3HgMOcajyDedFMPKlHFymrrcgyhf2XNVjxuUl3oTEbUGNS2l6BP/88wiEYWVDOASoxJxjQjI9LrgmyQ535aCjXh+zwLc9sP1uGzdTFy4ehIuWjMZl6ybjt+L7qLVU3DB6vPEuFm468eb8Oq+F7CjeJsybyhGtx2HIRnDeDmaiFolBotEFFbyNTnD24xB96Se6pDA5JnC/9t2D67ZeCneO/g2fi7aipzKYyi1lKpnEc3KmUT5839lYlhO5VH8ULAJr+9/EVesvwiP7XhAmSZYcYY43ND7j6LB5AuQiaj1YbBIRGElX4I9rt0E9Vtw/rX3GSzOWaj8tF8ov7gi390Yb4jHZ4c/wIPb54f0pHP/tEFoG9de/UZE1HowWCSisIrVx+K0EF6T81vpr/gk+z1E66PVIaGLEwHj0txFWHZ8kToksFhDnPLLMURErQ2DRSIKK/mKGvkkdDDkvYbvZr0R0iVkLfKC8ot7n1V+jzkY8n7KDnGdQ77fkYiouWOwSERhJX+nOUYfq37zz2itwLbCnxClq/tZRRe9zoCjlUfwS/HP6hD/ZLCYEZOp3GNJRNSaMFgkorAy6KJEF1xTZLQaUW4rU37LuUE4gLyqPPVLYDH6GDFPw59ZlNuTFJ2M5CjRRadodvJBG57ZJKKmxmCRiMLK+bvPwQV/Dtgb/OXY9hDOFDZUjOpN3n/50pC38N6o/+G/Iz/z2b074lNM63QBbHa+voeImhaDRSJqRhopWgszGTB3iOuITvGnaHYZsZnYV7YHBn2UOhcRUdNgsEhE1AwUm4qQVb5fCSyJiJoSg0UiomZgQ/5alFqK1W9ERE1H736vtLOXN08TEUUSu/jvm2NfsHUmokbncVu42s8zi0REEe5QeRa2F/2MKB3vVySipsdgkYgowm3MWweLw6J+IyJqWgwWiYjCTL478VBFFg6U76vdle3F2pMrlZ9FJCIKBwaLRERhZraZcdsP12HOhotx1YZLPLuNl+Cnoh+UX5AhIgoHtj5ERBHAYreqncWr40u4iSi8GCwSERERkSYGi0RERESkicEiEREREWlisEhEREREmhgsEhEREZEmZ7Co/LYLf0iKiIiIqPVyxYLiU/3dP/kvzywSERERkSYGi0RERESkicEiEREREWlisEhEREREmhgsEhEREZEmBotEREREpInBIhERERFpYrBIRGHlqOc7Xq12K6pslaKrCtBVwmw3q3MREVGwGCwSUVjZHTbR2dVv/hl0BqVzxZdyvqGZI3DX6fNw2+l3++3uOP1eXHjq72utK0Yfq/YFZrXbAJ1O/UZE1DowWCSisDLZTTCLLhiJUUlIi0kXsaIz4LOL/wZlDsV1vW7Bjb1u89vd0OuPmNZxljKPiwz72sS1cX4JwOFwoNRaAr2OzSYRtS5s9YgorCqtRhitFeo3/+IMceiTeg6sDqs6JLTL2O7Tyv6k6GT0TDpNHeKfPCOZW5kjGk02m0TUuuirm06lJ/hGl4ioIVTZq/Bbya/qt8D+0HUOYvRx6jdnEFcXMuCc2flitItrrw7xT05/uCJb/RYYW1Miam6c7Zb4V23AXN/5JzIRhZW8Z3Fp7rfqt8D6pQ/ArM4XKQ+sSBaHRfkMhcVuRpf4rrj99HvUIYHtLduNnMqj6rfA5DqCFWuIRYIhUbnUTUQUaRgsElFYyQdWthRswo+FW9Qhgd1xxr2496wHMDhjGJINSerQwJKikzAscySu73kz/jXkDaREp6pj/JNPUb+6758el78DOVl1Qu0Lzqh2Y5XAmYgo0jBYJKIw0ymXkl/Z+3zQ9y7KIG929+vw0pC3MLvH9erQwM5KORsvDP43bj39HnRJ7KYODWztyZVYfeJ7ROmi1CH+yYdgDpYfQKV69jMY1/SYi4EZQ1FuLVOCU/cHcYiIwonBIhGFnTy7+Evxdiw89oU6JDCd+C9aHx10ACfpRBAn55HzBiun8hhe3/8iEgwJ6pDA5PLzTCeVIDNYbWLb4uWhb+PN4R/ipl53YHKHaSJ4HIKzU/siKSpFnYqIqOkxWCSiiCBfh/PM7ifw3fHg719sbAWmPPxp6y3YX7ZXBJqhvV9RBsDvH3wbFdZydUhgMfoYjGgzGjefdjse7fsUnh/0Gv7W/xmkx6SpUxARNT0Gi0QUEeTZOPmAxyO//AWfH/4QJluVOqbpydfq/Fy4FXdsnYu9Zb85XwQeIjnPb6W/YunxReqQ4Mm8iNJHK68KWp+3BoeNwT+FTUTU0BgsElHEkEGSxWHGk7sew10/3owDZXvVMU1H3mf46r4XcNsP12NP6W7lsnVdyaDz2d/+HtLlaHdF5kK8vu9ffEqaiMKKwSIRRRQZMMoLvlvyN+DqjZfi778+gh3F20J6WCRUMqjLqzqB73K+xQ2brlACNPlKnvr+Wovckip7Je796XZ8nP0eyiyl6pjA5EM/Hx/6L05UHeevxhBRWLEFIqKIZNBHKT8F+NnhD3DrluvwR9F9JIKnvKqT6hT1JwPQrQWb8dSuR3HD5tl48Jd52FP6G6L1MeoU9acTzaxN/Pfsb0/g5i1XKwFpMK/Ika/e+TbnK8Qaal5ATkQUDoa09PSH1X5FRno6unfvrn4jalyuy2vun+edd57ST03j3/tfUvsijzwzJ8+qyfcbyjNsq04ux/+OfIxNBetxvPIYjLYKVNmqlFfuyOnky62DIqrbP/cswCM7/oL3D72DncXblGVJrgdZnOc3G4ZrWQXmPCwRweKS4wvF9uTKZMBqt8AiOnkm0fWb1/Kp7a+OfobluUvCflZxbq9b1T5qCsuWLVPqYDCd5PokaggHDx5EUVGR0mYpdUupa+KjW/fuzuO0+Ef29OjZAxMnTHDORdQA3ANB785uFwdIr88FCxYo01PTGLrkLLWveRA1RwmsJPnanBgRIEaLz+FtRuOJ/s8qw4Mhz9xtKdiAdSdX42DFAZRaSpSHaqzKWT87zGoA1xicgaFDuR8y3pCA5KhkpMSkIiUqBYlRSYiLSsDm/HUoMjsb7XDaMmWX2kdNYd68edDr9cqB2vvTu5Ncn0QNYcX33yPrQJazXlXXNQaL1AScFYzBYqRqbsGiFhnoPdb/aczodFGdzsbJM3xVdpMI5Kyw2K24btPlOGY80qRn9lxBpAyJ9TpD2ANFicFi02KwSOGkFSzynkUiahFi9LF4ac9z+K1kpzokNPJVNUlRSUiJTkOlzYjcymNNfiCWgal85Y5BFxURgSIRkcRgkYhaBBnYFZjycd+2u3DEeFg9Q1c38iGXClsFAzYiIoHBIhG1GPLMnPx5vps2z1GeOq6rPaW7YBD/ERERg0UiamHkZVz5u8zzfr4d9227E7lVx2EL4lU1Lma7GfvK9tTrZdxERC0Jg0UianHk5eM4Qzy+y1mEOet/h0d3/J/yGhr54m1HgCec5W85H1UebOGZRSIiicEiEbVY8uxgiaUYi3K+wp1bb8LUlWNx45ar8E7W6/i5aCvyTXnKT+q5d/lVecq9j0RE5MRX51Cjc1YwvjonUrWUV+cEQ9Q62Ow22GFT3tEofx1FvgDbnayHFrtZ/UZ8dU7T4qtzKJz46hwiavVEs4cofZTymh15mVn+corZZvLoGCgSEXlisEhEREREmhgsEhEREZEmveu9tXV/fS0RERERtRTqkwbyJm6lj2cWiYiIiEiTrlu37krcKJ8AlBEkn4amhqbULfXTu+PT0ERENfg0NIWT62loUbHk/8pDgTq9qIPqeCIiIiKiWhgsEhEREZEmBotEREREpInBIhERERFpYrBIRERERJoYLBIRERGRJgaLRERERKSJwSIRERERaVKDReW13PzJPyIiIqJWrFYsKAbwzCIRERERaWKwSERERESaGCwSERERkSYGi0RERESkicEiEREREWlisEhEREREmhgsEhEREZEmBotEREREpInBIhERERFpYrBIRERERJq8gkWHj995ISIiIqLWQQaCNcGg7OOZRSIiIiLSxGCRiIiIiDQxWCQiIiIiTQwWiSKaFcXZWcgzqV+bi/yf8OV7H2P9EZs6wI+qLKz86D0s3lWuDmgszTQviYjCjMEitUI5+HjuOMx+Jwt2dUjEKliGBy+9CH/69HDzevbMcQjf/PMj7DTr1AF+6Iqw7rWXsSpP/d5YauWlAxazJULyNZLS0lBC3aaWmAdELQODRWqV7CYjqqzql0iWOQULvluF167ogiDCLvLHIy8t2PHC7zDtgdUoVUeHTySlpaGEuk0tMQ+IWg4Gi0S+OMwozjmAvfuPoLDK/fyjHeaKMhgtDljLTyIn34jqC622Cpw8uBf7j5XAXH16RExvLFemt5WfwMGsIygyqSOt5ThxcB8O5lX6OcNphz46CnplJTXLcpiKcPTAPmTne8/rgKk4B1n7spBTYnaepbGbYSwv9wiOHRYjyo0Wdd76plGlTpuVWw6rw8f5Ic089aEu+e/BRz6IeZ15KbbTXIHKSgusNiuqKsW21xSYFwcsJcedyyk2ueVBHfOsVh0JJS1eHBaU5WZh775s5FW45YK/vFPTbDfmI3v/fhwr9f6LyVe+qXzWb5VHWqz+tynYPAim3gZVF4iovnTdunUXzbr4T/4rup49emLixAnqaKL6k/XK9end2e32Wp8LFixQpm88Ofjwqgvx+bkf4ZMbetT6i6nyt3dxz23PYV1xEjLiK5BXkowx817Hc3NOR7zpR/xtyu3InToeWR9+jRO9b8NHH92Ezrvfwp03/ws/2lKQaCqGuefVePHfd2NIrHP6w2NH4sSqH1BsLEBezLn46+NjsfmJf2JrpR2lJyrR+9b/4L939EeCmoZqyvruQPnD3+HJ4Xuc6541E4X/+wqHxejSPCM6XfIs3n10Eto5jmHhfdfj0VXlSE60o7D8NNz/zTv4g/5zXD/jA4z4+DPc0N15fjL/61sw442z8e6Xt+I0Sz3TKJT//CJuuvUN7EYaUqKsSDx7MJJ+zMb4Dz7HTT31AfP0MbH+8oeX4qmxSXXK/97uhWjTyId0V17+B4M/ug5PbchDmSMRydGx6DfvE7zxh87qAlxy8c09c/DQ96VITo9B2clydLr8Bfz3/8YgTU1HKHlm3OWrjlyO7Pl/CCItnszZX+HBW/+GJSfikZlgQoFuIv75zRMYeiRw3h2bPBEnvv0e+XYRtBWmYdqzH+GZaR2g08q3DlppF/U7xVdahuHiXtuw8Ifa2xRSHozfFFS99VsXmqF58+ZBr9dDp9PV+vTuJNcnUUNY8f33OHDgQE09k9e0xCfPLBK5K9+AJ//4HPJmvYm1W9di1bofsOaVichecA9e3WlWJ6rCrv2d8OjKbdjy3rXoXrkJT9/+MkzXfoIN61dj7cbPcXPUp3j8P79CzqHT5WNb7nC8tHw1Vm/8Cveeugl///OX6P70MqxbswHLnh6Fwx+8iw0lzqX7o9MVYv36aNz59QasW7sJm764FekLH8Yza0tRsellLFh/Dp5avhbfr9qArcsewehEdUYRr7ud2xGcwbpLvdJYsQFP3/0mLFe8i9XrV2Hl6sV4tFc2drqmDSpPVXXJf69WzG8+KDrgkleW4vXZvdBh8t+xbOs6/PtS38FZ+rhHsHjLZqz6fi3WvHUxqj57A0uOO8eFlGcVWnWkELOCTEu1qm144ZaH8Muw57Bi8xqsWL0Zmz+ai97GwHkn07z51654Ytl6rNmwER9el4BlL3+C3VY/+aaZdlG/fablT7jhBR/bVJc8CFBvA9UFImoY3LWI3FRsX4TvqybhlmsHIlX5g92AzNHX4cq+uVi95qB6mcuGLpMuxuA0AwwxMTBtW4gVpnG4eJAZ+3bswI49legxqDNytmyHfGbD4UjG4OnjcUqUXFwXDBnaAYZeU3HxOfJIrEe7voPQzZyL42Vy2f45HHEY8Ic5GJbu3HUTzrwYl4+0Ytum/bAnt0FK2VZ8tXgnCi1AVHpXdE5WJguoPmk07liCVVUTcNOcvkiSeaZLxoBLf4d+8c7xweWpU13yXybZXXRQ+SDmlTO6/npW1uWtA0bNHI7Usmzs2LgMS3eLfIjNQ26R87poKHlW4beOBJOWGpW/fIVvC8fjrttHI1NtwWM7dEfqvsB553AkYcglF+IMpWziccaYwUjPP4Ljldr55i/tRzTS0imh9jY1ZB7U8F8XiKhhMFgkcmM8eRJV6Z3RweNaazI6dkpEZXEZxDFUSES7dklKn2TMy0NFxRa8ft+9mD9/PubPm4+nlhvRNtGu3pMVi+TkWGVaucvFxMUgPjUN8eoBUReTgDiDDTa75zkU3xLQtq37aTKx7JRYWKvMMPS9Da8/Pw0lr8/BmGFTcee7OxBE/KmqexorTpxEZZrIM7dk6WITEK8euYPLU6e65L+3mHrlgxvTHrx38ySMnj4Xj/z7W/yUWyWiLXWcIvg8C1xHgleek4OKjK44xSsLgsu7OKSlxSl9UlRiktgKG2SxauWbv7QXH/OdFl8aMg9q+K8LRNQw9Mo+WucdlahlSWjbFrGF2Tjm/so/RwlyjlUhtUMmYtRBOrdnk+MyMhAXOwR3f7gIixbVdN++OhvqrVYNyISSUhG0uNgLcCi7Ehmd24owIBqdJ96Ld1ZsxvJnx+HwM7fiqXViQwxRiHYYUWZ0ncNzoLKkFGa3baiPmMQE6EtOIK9SHSDYio4jT01msHkq1SX/a9PIhxCVrHkNL+0bh5dWLMVnbz2PR2efBYPXVfNgNWQdiUtPR3ThYeRUqANUoeSzb77zzV/aT8vwnRZfQs6DIOut/7pARCFxxYPyU3SurzyzSK2Wo7IEBUUFKChwdiWVdiQOmInJSd/jny+swgnlaqMJRxb9C2/vPQMXndfV5w6T3G8yRhqW4dW3tqJIeUzTjvL93+HrLcXK+Iak05Vh8/sf4MdieQA14/DCF/DO7h6YOr4byn5egfXHKuHQxaLj4LHon2lGablFJLAremQew+rvdkIe021Fm/HB5zthDv5an1+pAyZhsPU7vPrudpTKxqXqEBa+uRhH1fGh5Gld8t9biVY+eDAgPiEapvwClDvssNlcTWINm8kEq80Mk0WMsxfjh4+/wE63gDgU/uuIj7QUL8dTN92HD/d4p1ssa+BMTIxfjuefX4njymgrCnb+iOOn1S/vtPLNX9q10rK/ovY2hZwHjVxviSh4DBapVdJHObDn39dg0rgJmDBhAsaPnYI/LcwV0cpwzHvlfvRe/2dMHjoMw4eNwkVPHcfMfz2Hy0517i46vfx0Cy5SJ+CB569H7KfXYeyQYRgxcgTGX/s2DogDoKTTy0+36fVRMHjseToxjfb5Ebk+nTq/w9EGw84+ioenjsTwocMx47E9GPG3f+CqngbY85fg/ikjMHTEKIyaeDe2DPkL5k1KB2L64ep7pqHyncsxbMBgjLjgRdiGD1fva3OqVxozp+DBJy+E8e0rMHLAQAw592as7Dah+p7FoPJUJ7ZRPrhQl/z3opkPQk1e6tFt/Az02PkopvQfhRs/y1HGu8sYdy2uaLsUt40bgRGjLsDz5f0xKEPO7xRSnvmtI7XTUnVgM1Ye74h+PaLl3J6SR+H+V+ejx7p7cP7QoRghtnP6/d8hL6i880qzSJ1epFHSzDd/addKi6/8DTEPgqu3/usCETUMXddu3eXjZWJ3cz5lxlfnUENzPb0oP7278Lw6R6TFboXN+bK2ajqDONhXH4hsqCwuQKktARkZSYh2O0A5bFbYZWDgNkxhN6G0sBiVhiRkpiUiSh1fa3q7TSxdLwIL1wR2WG0O6A0GuAbVEHlis8Eh5zc7XxVS/MAiLBitR2GpFfFpGUh0iyfspjIUlZoQnZKOlFh5EK7hMJehoMQi5klHgryXThyko9QV1i+NKksFCourEJ2ajuQYHexWm3IpsWZ67Ty1i/Ur2xjEtJr578Z3PrjlpTqvw2pESZkdCalJiPEI9FQOK4zFRaiMSUdmogjIxTY51HpSpzzTqCNSTVoScPTd6/HX8nvwzm1nw0e46CTTVlSIcl0SMtIS3JYVQt7JNIr9wCCiXDnIX/3xl3attPjM36DyoGb6kOptC8BX51A4rVjxPQ5kHZB/6jrrllrXfDWPRC2eThxgoqI8O88DjkEcnNqhfabnwVbyDCrd6GOR0qY92qd7HgBrTa831AQUkk4v1q8VhImd1Gt+g0irPjYFbdp6BoqSPjYZmW3b1D7QC7qYZHUesfPL7XdbYf3SqIpOREbbTBEoymZFpFum02N67Tz13sY65b8b3/lQOy91UQlIS9cIFCVdFBLS24pAUXlUV9km1/x1yjONOiLVpKUAu/dEY+SY3tqBoiTTltEO7dLdA0UphLyTaVQDRclf/fGXdq20+MzfoPJAHSCEVG+JqFEwWCQiiihtMe3vr+PWfq4nrYmIwovBIlFzEXU6bnjzP7it+mZAIiKixsdgkai5MCShQ4/eODXNxyVCIiKiRsJgkYiIiIg0MVgkIiIiIk0MFomIiIhIkxIsKm/Bk//w3aZEteX/hC/f+xjrj8hfTbGiODsLeSbnKP9CmdZbfeath6osrPzoPSzeJX8zLkxpaEQVexfjtacew4LPf8HxupSjmj+LlPxpTC0v71vmNhG1QGos6B4S8swiUSCOQ/jmnx9hp1kHFCzDg5dehD99ejjw31ahTOutPvPWh64I6157GavyRH+tNDhgMVuCTE8OPrlpDIaMvx1fHveao/g73D12Op7+uWmjBmvWO7hx9gJsRSbiC1bh0bqUo8if9a+9gtUyfxpTWMo/lPKtg3DVaSKqNwaLRKHInIIF363Ca1d0qX6RsaZQpvVWn3kbikcaLNjxwu8w7YHVKFVHB2KrtCA1bhf+9Y8l8I6t7FVVsDbxluVuWoGDp8/Fw/P/iNtvvB3PNUU51lWTrzP08g1ZJNRpIqoTBovUSjlgKTmOrH1ZyCk2weuX/wBrOU4c3Ies3HJYHe7nQezQR0dBL69Ii36zsRxGiwMOUxGOHtiH7PxKt2W5Tys5YCrOca6zxOx5dsVhQVluFvbuy0ZehZzB93rsxnxk79+PY6VWOcKTtQy5WSLNJypgs5thLK9AVfW6fbBV4OTBvdh/rARmn6d6XGlwwGauQKUI/qw2K6oqRVp8z1BLxsjzcOqqx/Hk8kJ1iBclneWoctsch8WIcqNFzccgt71W/nmyi7wpKjBCFx8Ne4Vcni2E/PUuR5F18mcD1TI/5F7mAbdH8lMPqtWh/L1plq/3+kMsX9e+caLcs54FUZae+RhMPhBRJGCwSK1QLr65ZzKGj7sQ1910NWaOHo4LHl+LYnVs+c8v4spzR2PalXNx/aVTcOHDa1Hu2lNM27BgxhQ8sqFc9P+MBdMnY96LT+LKSVNx2TVzxLKGYdoDy3FSHh3dp7Udw8J7p2L0eZfihrmzMW3ijfgk17lIc/ZXuG/mSIyZeQ1uueFSnDf9r1hdUHs99/zjQVwy+QLMueoSTBw6CXcvyq0+wJb9+AIuHzUC519+A669cAJm3D4P1028Eu8crAlR3Bl3vYW540djyuy5uPaCczHmsmfxg/cpper0H8AXd87CrR/sx/FlD2DG6PNxxxc56kT+2GFLn4Q7bu6K1Y8/g9WuDHaXvxC3T7ga7x2pCRUKFt+DSZe9jv1KHgbedp/553FLYRGWzhfl8+IvOLH6QZw/cALu/XZN8PnrXo4q8y+vYM6UWbjy2qtw4bkjMOOvK3BSThxoe/zUAw8+6pm/PPCmWb4+158bdPnKfWP2mJGYLOvZBRMw7dZ7cd2EK/GfbJGSgGUZ3P5ARJGHwSK1SunjHsHiLZux6vu1WPPWxaj67A0sOS5GVGzA03e/CcsV72L1+lVYuXoxHu2VjZ0lzvm86XSFWL8+Gnd+vQHr1m7Cpi9uRfrCh/HMWs/Iq2LTy1iw/hw8tXwtvl+1AVuXPYLRiWJE1Ta8cMtD+GXYc1ixeQ1WrN6MzR/NRW+vPVOny8fmX7viiWXrsWbDRnx4XQKWvfwJdsuzOOXrseCet2G/6kOs37waqzcsx9+6Z2GHRppFYvD07S/DdO0n2LB+NdZu/Bw3R32Kx//zK8zqJJ464JJXluL12b3QYfLfsWzrOvz70s7qOP90cRnof81DuKXDMjzxr40oU4d7ELGFZ9DjgMPtbK7fbQ8q/9Ix5ZmV+N9dfdF+3BNYtXszXpyaqo5z8rsOb6LM122IFgGVyOs1G7Hh81uQ8vVDeHaNWuZ+tkezHgQQUvr8lG+Rz/V3DK58yzdgwZ/EvjH7fazfJLZ94wo80eMgfnGv6n623V1d84GIwoPBIrVCHTBq5nCklmVjx8ZlWLpbj3axecgtssK4YwlWVU3ATXP6IkneWKVLxoBLfwetX9hzOOIw4A9zMCzduSslnHkxLh9pxbZN++H++EZ0chuklG3FV4t3otACRKV3RedkoPKXr/Bt4XjcdftoZKp7Y2yH7uiU4Ox3cTiSMOSSC3GGko54nDFmMNLzj+B4JWDc+R3WiDTPnX0OkuRokeaBl/1eM80V2xZihWkcLh5kxr4dO7BjTyV6DOqMnC3ba91bWMMAQ5T40OnE/7JzDg1K9GmY/eA1SPriUbz4Q4U6MHj+tj3Y/HOmXydCFzX96lAXf+uoxRGL/pfOxtA0tzIfIcp88wGPMvdFqx4EEkr6/JVvieb6A5eva9+4cY5nPeuvUc/8qWs+EFF4MFik1se0B+/dPAmjp8/FI//+Fj/lVomjsXNUxYmTqEzrjA5uZzl0sQmIlwdSnxLQtq37KZFYJKfEwlplhtstbojpextef34aSl6fgzHDpuLOd3coZ9nKc3JQkdEVpyhHX3/ikJYWp/aLg2tikliTDXaRbqNMc/op6OiR5kQkaKTZmJeHiooteP2+ezF//nzMnzcfTy03om2iXePexfqLPfM6PHJdPP732OvY5isA80t724PPv0C011GbKPM2nmWekhoLS5XJo8x90aoHgQWfPn/l6zinruuX+8YJpZ51cAvEdXHa9cyfuucDEYUDg0VqdUrWvIaX9o3DSyuW4rO3nsejs8+CQb3+GpOYAH3JCeS5BTS2ouPIE/GkbyaUlLqNtBfgUHYlMjq3FYd3d9HoPPFevLNiM5Y/Ow6Hn7kVT60rR1x6OqILDyMn9BNu1WKSEkWaRRrd01ycq5nmuIwMxMUOwd0fLsKiRTXdt6/ORvdGe0w1Dmdf9yAud7yHR9/aA6tBXZEhCtEOI8qMrjDLgcqSUpiDfF62IfIvdGaUepR5EY4crUJ6J1HmAbfHdz1oSP7Lt+7rj01OhqEkF/lum+5Rz0Iqy8bPByJqOAwWqdWxmUyw2swwWRziQF+MHz7+AjvVQCt1wCQMtn6HV9/djlIx2lF1CAvfXIyjztG16HRl2Pz+B/ixWB4gzTi88AW8s7sHpo7v5rFzlfy8AuuPVcKhi0XHwWPRP1MEHOUWJA+ciYnxy/H88ytx3CKntKJg54/YH0Lwk9J/QnWay5Q0H8RX/16Iw+p4b8n9JmOkYRlefWsripTnX+wo3/8dvt7i6wkUFwPiE6Jhyi9AucMOm02sqOoYNi1di4PBpjWhP2566Pcwfb0EWVFqAJHcFT0yj2H1dzshF2Mr2owPPt8Jc5DXuRsi/0Kl05Viw3/frynzb57HW7u6Y5os8wDbo1UPGpK/8tVev4/y9SLr2RClnv2i1jO5byyq2TdCKMumyAciajgMFqnVyRh3La5ouxS3jRuBEaMuwPPl/TEoQ+88/5E5BQ8+eSGMb1+BkQMGYsi5N2Nltwke9//p9HJa58HU4WiDYWcfxcNTR2L40OGY8dgejPjbP3BVT4My3jWtPX8J7p8yAkNHjMKoiXdjy5C/YN6kdHGAHYX7X52PHuvuwflDh2KEGD/9/u+Uewfd16PTy+W5H8B10OvVg3DmVDz05MUizVdizNARGDX+FqzsOlGkWczvK+ZKnYAHnr8esZ9eh7FDhmHEyBEYf+3bOCACBkmnE/OpDyXUpEGPbuNnoMfORzGl/yjc+FkOTLvfx0N3PIA3f/Z9RkhniEaUVwuTOPhWPDjLgUMn5H2DYrkx/XD1PdNQ+c7lGDZgMEZc8CJsw4cj1S3dfrfdT/7VojOI9NQsOOj8FTzKHO0wXJb55CEY0H8wpj+2r6bMA2yPZj3wIZT0efBTvtrrr12+tch946mLUfGWs56NHDcXyzqPxTmuU+hBlaVzm0LJByIKP13Xbt0dytNqopOfPXv2xMSJE9TRRPXnehpSfnp3dru91ueCBQuU6RuVwwpjcREqY9KRmSgOolYbHIYouK6OwlKBwuIqRKemIzlGp4yXl9n0OpFG+Y49vZjW/CP+NuV2FD+wCAtG61FYakV8WgYSo9VlyIOia1qxXLupDEWlJkSnpCMl1hmYVZPpKSpEuS4JGWkJiHJfj5jXYbPCrvY7p7fDahdJMsiDr0qkuUCmWSw//uDL+P1V23H1N//GRe3U8d7sJpQWFqPSkITMtESxTnWwWJdzvZ5pkBxWI0rK7EhITUKM3gGLyQJDbIzPvzoddpFmiHm9RzpssIrEy2DSNc5hLkNBiUXkXzoSDDbYRGDjCuyC2vZa+acOd2eXy9WLdcqRoeSvVzmq+aO3lKppznQrcyd/2+O3HlSrQ/l70ypfP+v3LF91oDe1nsWI+ZNLvsQN09/FkI+/wE09nCvQ3navfAwqH1qfefPmiT8ERLmKv/S8P707yfVJ1BBWrPgeBw4ccNYrt7ommgPXX8tErYguCgnpbUWgqDwCCn2U24FYik5ERttMESjKI6ZzvPNYL/rdg0rBIMfFpqBNW/dAUfKcVh+bjMy2bXwfGGV6MtqhXbor0PGcV+e1Tuj0iHIFCqaj2LW7ABaR5kyR5pSoPKx89yucOOc8DG2rTO2bPhYpbdqjfXpNICHVrLf2tuqiEpCW7gokdIjWCBQlnQwKfI2UZ/iiawJFSReTrOafaJjEfB5nAP1tu0ut/PNBb1ADRSmE/PWa1tWvi5FlXjtQlPxtj996UC2U9GnQKl8/6/csXw1qPUuOFRP5SID2tnvlY1D5QETh4BkTOjTbeSJqLnR5+PZP4zBo6FhMmT4F5w6dhPu2D8b/PXwROvuNJoiIiALTde3WTV79Uy4Bin94GZoanFK31E/vLmyXoRuCrRy52cdhyeiBU9PCfHbEbkT+4WwcLTQhtk039Dw1DTEMFKmxVeXj0NESxHfqifa13m1JdcHL0BROrsvQomK51TXwzCJRnRmS0KFH7/AHipI+AW26nYn+A/vjzC4MFKmJxLVBt14MFIlaOgaLRERERKSJwSIRERERaWKwSERERESaGCxS61OVhZUfvYfFu/jzYvWW/xO+fO9jrD/i+om3ViLS6lA9y6Fi72K89tRjWPD5rzCqw4iIXBgsUuujK8K6117GKp8/8xFODljMliDfeZqDj+eOw+x3DkD5RbeghLL8IDkO4Zt/foSd5kh4oqYRtk9LpNWhepSDNesd3Dh7AbYiE/GmyhDqExG1FgwWiSKCBTte+B2mPbAapeqQQOwmI6qswQYHoS+/eWnp29d4cjetwMHT5+Lh+X/E7VcMRpI6nIjIhcEikTwjVXIcWfuykFNsqn1mxWFGcc4B7N1/BIVV7mPtMFeUwWhxwFp+Ejn5RlRfBLRV4OTBvdh/rARm71NdtcY5YDNXoLLSAqvNiqrKchhrzRSISItRzCfSYjfmI3v/fhwrtarjAizfZ1r9bJu1HCcO7kNWbjmsDrfl2M0wlpeLAFb9LjgsRpQbLWqe1qTRVn4CB7OOoMikzq8u82BeEGe26px/dVl/gLrhTrPMHTAV5ziXUWIW34SAeSUFWLdWOSiCS7fdWoaiAiN08dGwVzjzRnveOpZfKPniU6D904Ky3Czs3ZeNvIpWdjsEURNRX8otX5Asvol/+FJuamiyfrk+vbuwvJTb9CMem3I7yh9eiqfGluObe+bgoe9LkZweg7KT5eh0+Qv47/+NQZqYtPK3d3HPbc9hXXESMuIrkFeSjDHzXsdzc05HvFiO/G3o3KnjkfXh1zjR+zZ89NFN6Lz7Ldx587/woy0FiaZimHtejRf/fTeGpADGXb7GXY7s+X/AUxvyUOZIRHJ0LPrN+wRv/KGzM70+5eDDqy7E5+d+hE9u6AG9mpZjkyfixLffI98uDtCFaZj27Ed4ZpoDn9/ie/m+0yPSGut72zpufxE33foGdovcSYmyIvHswUj6MRvjP/gcNyV/getnfIARH3+GG7o7z3jmf30LZrxxNt798lacZnEu8/DYkTix6gcUGwuQF3Mu/vr4WGx+4p/YWmlH6YlK9L71P/jvHf3h69V99co/NY+CX3+udt3wqENJ2vmYeAwL77sej64qR3KiHYXlp+H+b97BH/Sf+88rvZ91i2nLf/ZTDj1P+p23RhGW3DMT93xzAiZEIQbJGP/sfzD1+zs0tznU8gs5Xzo4U1bDfz6Ys7/Cg7f+DUtOxCMzwYQC3UT885snIIqk2eJLuSmcVqxYgQMHstSXcjvrl/yPZxap1Usf9wgWb9mMVd+vxZq3LkbVZ29gyXExonwDnvzjc8ib9SbWbl2LVet+wJpXJiJ7wT14dafZOTOqsGt/Jzy6chu2vHctulduwtO3vwzTtZ9gw/rVWLvxc9wc9Ske/8+vMFdojSvErFeW4vXZvdBh8t+xbOs6/PtSf4GibzpdPjb/2hVPLFuPNRs24sPrErDs5U+w29oRl/havmZ6RFqVJXpv2wY8ffebsFzxLlavX4WVqxfj0V7Z2FmiTOwk/i7wPEPk/KPARaZxW+5wvLR8NVZv/Ar3nroJf//zl+j+9DKsW7MBy54ehcMfvIsN7st0aYD8C3X9mnXDnZ98LNr0MhasPwdPLV+L71dtwNZlj2B0ojpfgLzSXHdF4HIIKt1Ix5RnVuJ/d/VF+3FPYNXuzXhxerrfeUPKv7rmixfN9FRtwwu3PIRfhj2HFZvXYMXqzdj80Vz05lGNqMFxt6JWrgNGzRyO1LJs7Ni4DEt369EuNg+5RVZUbF+E76sm4ZZrByJV+ePdgMzR1+HKvrlYveagelnWhi6TLsbgNAMMMTEwbVuIFaZxuHiQGft27MCOPZXoMagzcrZsR7afcXli2YYosTjlrznnX3ShcjiSMOSSC3FGvPwWjzPGDEZ6/hEcr5Tfay+/wm96JM9tM+9YglVVE3DTnL5IkunTJWPApb9DP2V9wXE4kjF4+nicItNi6IIhQzvA0GsqLj5HRgoi7/sOQjdzLo6XKZN78J/e4PIvtPVr1w13/tJVktwGKWVb8dXinSi0AFHpXdE5WZ3RL+11GwOWQ3DpdpL5phNhqppvAeYNJf8aJl+001P5y1f4tnA87rp9NDLVI1lsh+7oxF+TIWpwDBapdTPtwXs3T8Lo6XPxyL+/xU+5VfIEj8J48iSq0jujg8fBJxkdOyWisrgM4hgnJKJdu5prXsa8PFRUbMHr992L+fPnY/68+XhquRFtE+0oPak9zuctdiGLQ1panNovDsCJSYgVAZ9dY9n+0upMj+e2VZw4ico0kR9uZ4B0sQmIl4FD0GKRnByr9usRExeD+NQ0xKvBnS4mAXEGG2w+Eh04vcEIYf1+6oY7f+lynHMbXn9+Gkpen4Mxw6biznd3wEccXJufdQcshyDT7VPAeYPPvwbJFz/pKc/JQUVGV5zCJ3KIGh2DRWrVSta8hpf2jcNLK5bis7eex6Ozz4JBvcKc0LYtYguzccz9VXqOEuQcq0Jqh0zEqIPk+RiXuIwMxMUOwd0fLsKiRTXdt6/OxmmZ2uPU29aalL+0utLjvm0xiQnQl5xAnnKm0slWdBx54vitMEQh2mFEmdH1kIEDlSWlMLstoz6CSW9D8lc33PlPVzQ6T7wX76zYjOXPjsPhZ27FU+tEhQqQV/7WHagcgk23L/WZ11ud8sWLv/TEpacjuvAwciqc34mo8TBYpFbNZjLBajPDJJ8CtRfjh4+/wE71IJw4YCYmJ32Pf76wCieUq3AmHFn0L7y99wxcdF5XnztPcr/JGGlYhlff2ooi5bFNO8r3f4evtxT7HScvB8YnRMOUX4Byhx02m0hP1TFsWroWBxvkYFh7+f7TU1vqgEkYbP0Or767HaUieY6qQ1j45mIcVccjuSt6ZB7D6u92QibZVrQZH3y+E2ata8IhCjn/6slf3XDnL10lP6/A+mOVcOhi0XHwWPTPNKO03BIwr/ytO1A5BJtuX+ozr7c65YsXf+lJHjgTE+OX4/nnV+K4MqsVBTt/xH4Gj0QNjsEitUo6nR46hwMZ467FFW2X4rZxIzBi1AV4vrw/BmWIcXKixOGY98r96L3+z5g8dBiGDxuFi546jpn/eg6XnercdXR6+SkOZC6pE/DA89cj9tPrMHbIMIwYOQLjr30bB0Qw43ec2BW7jZ+BHjsfxZT+o3DjZzkw7X4fD93xAN782fevhOgN0Yhyi8N0erkct7SIrdDrXRPUXr7/9PjYtswpePDJC2F8+wqMHDAQQ869GSu7Tai5Vy6mH66+Zxoq37kcwwYMxogLXoRt+HD1fk+nWmnUR8Hg0QrpxDTu5zPdhJh/voSyfr91Q3DVIX/psucvwf1TRmDoiFEYNfFubBnyF8yblB4wr/yuO0A5BEp3LToDotR6EnCbQym/uuSLF7/pSR6F+1+djx7r7sH5Q4dihFjW9Pu/U++3JaKGxFfnUKNzPeHprGeeXVhenSPYbVY45IFOHnUcVhiLi1AZk47MRHEgs9rgMKjjFDZUFheg1JaAjIwkRFcPF7OK5dhdy3FnN6G0sBiVhiRkpiV6BHX+xjmsRpSU2ZGQmoQYvQMWkwWG2Biff9U57GLdqDlY10qLww6rHTCICaoHeSxfHaiRHs1ts1SgsLgK0anpSI7RKfklL6u64lKHuQwFJRbEp6UjQd6/JoIDVzBSa5l2OV4vtsE1s0izzSECYUP18moJOv/UgW5CXr+fuuFRhySNdNlNZSgqNSE6JR0psc5A3MVfXgWsl/7KIWCddlMrD7TnrVP51SFfPATaFjm+qBDluiRkpCV41IfmiK/OoXDSenUOg0VqdLJ+uT69u3AFi0REkYjBIoUT37NIRERERCFjsEhEREREmhgsEhEREZEmX7eAq59ERERE1Pp4xoI8s0hEREREmhgsEhEREZEmBotETcqK4uws5JnUry1GfbarLvPWPx8r9i7Ga089hgWf/wqjOqzhuKWvKgsrP3oPi3b5frl6k5DvPzSbYdX6ofCGEHA7W2rdJ2r5GCwShcwBi9lSt7t7C5bhwUsvwp8+Pdyy7g6uz3bVZd565qM16x3cOHsBtiIT8aZKKL9G15Dc06crwvrXXsHqMPy0iL1oOz74yx8wbuhADB4yBAP7DcDwCx7ByiJ1goYUaDtrlVk99iMialIMFolCYsGOF36HaQ+sRqk6JCSZU7Dgu1V47You1b+q0iLUZ7vqMm898zF30wocPH0uHp7/R9x+xWAkqcMbTASUs+3YV7hr1my8kjsS9//nW3y/djW+X/I+HpvVHdHhiNA88qSe+xERNSkGi9RKOWApOY6sfVnIKTa5nVmyw2wsh9HigN2Yj+z9+3Gs1KqOc8BmrkBlpQVWmxVVlWI6s9tR11aBkwf3Yv+xErgP9mSHPjoKepuz37Uuh6kIRw/sQ3a+91kuB0zFOc50lpidZ2HsZhjLy1HlSpbgsBhRbrSo89Ys11Z+AgezjqDIpCbIWo4TB/fhYJ6/s2mB0iXGV5Qp463lJ5GTb4RNDPO1XcGt331eycc21+J7fbXLrDa7tQxFBUbo4qNhr3DOp1kfAua1ymFBWW4W9u7LRl6FTJT3NonqYbNV5+ch9/wMah3B5IkbxzH878En8PPAJ/DJG3fi/LM6IyMlDW0698F511+F0RlimmDqUa1ylrT2HSfN7RR9zjzR2I/qnB4iamwMFqkVysU390zG8HEX4rqbrsbM0cNxweNrUSxHmX7GgumTcc8/HsQlky/AnKsuwcShk3D3olxxiMzFF3fOwq0f7MfxZQ9gxujzcccXOcoSjbvewtzxozFl9lxce8G5GHPZs/jB1ykT0zYsmDEFj2wor17XvBefxJWTpuKya+aItAzDtAeW46Q8OtqOYeG9UzH6vEtxw9zZmDbxRnySK4bnL8TtE67Ge0dqQoaCxfdg0mWvY7+cT13uXY/fi4tnXIprLpuKURNvxYerP8ZdYvjvrp6DC8Q2//6Fbb7v1QuULjl+xvmY99wDmDVmImb+8b/Iqqy9XUGv3z1PtLbZm4989F1m3oqwdL7Yphd/wYnVD+L8gRNw79Ld2vUhUF4L5uyvcN/MkRgz8xrccsOlOG/6X7G6wC19KvMvr2DOlFm48tqrcOG5IzDjrytwUi420DqCzRM39qxv8eGPnXHlbVPRUauVD6YeeZez3c++o9LczuoyO+B7P6pTepzTEVHjYrBIrVL6uEeweMtmrPp+Lda8dTGqPnsDS447x+l0+dj8a1c8sWw91mzYiA+vS8Cylz/BbmtHXPLKUrw+uxc6TP47lm1dh39f2hmo2ISnb38Zpms/wYb1q7F24+e4OepTPP6fX2F2LlKTTleI9eujcefXG7Bu7SZs+uJWpC98GM+sLRWLfRkL1p+Dp5avxferNmDrskcwOlGdURxPaw6pkvO3tl3kNmzLHY6Xlq/G6o1f4d5TN+Hvf/4S3Z9ehnVrNmDZ06Nw+IN3saFEncGLv3Q5VWHX/k54dOU2bHnvWnT3aknqun6/2+yHdpmpE1RLx5RnVuJ/d/VF+3FPYNXuzXhxerrf+uA3r6u24YVbHsIvw57Dis1rsGL1Zmz+aC56e7esIj/XbYgWQZHIjzUbseHzW5Dy9UN4do2an37WUZc8Kdm3E0eS+6Bv5yh1iAY/63WqXc5+8yrQdio6+N6PpDqkh4gaH3c1aoU6YNTM4Ugty8aOjcuwdLce7WLzkFvkjCwcjiQMueRCnBEvv8XjjDGDkZ5/BMcr5XcDDPL4q/zIuvOH1iu2LcQK0zhcPMiMfTt2YMeeSvQY1Bk5W7Yj0DMNDkccBvxhDoalO3fFhDMvxuUjrdi2aT/syW2QUrYVXy3eiUILEJXeFZ2TlckCcjiSMXj6eJwi02rogiFDO8DQayouPkdGGWJ7+w5CN3Mujpcpk9fiL13Oh1lt6DLpYgxOE/kREwPvkKSu64+u4zb7LzNvsgx1IgxRyzBAffCn8pev8G3heNx1+2hkqq1pbIfu6JTg7K/miEX/S2djaJpbfo4Q+bn5gJqf2uqSJ9aqKtiiYhBT7xbeu5wD5FXQ21l7PwqO/3pHRI2j3k0JUbNj2oP3bp6E0dPn4pF/f4ufcqvEQU4dp4hDWlqc2i8OzolJiBUHKa23jhjz8lBRsQWv33cv5s+fj/nz5uOp5Ua0TbT7uXfRJQFt27qfJopFckqsONibYeh7G15/fhpKXp+DMcOm4s53d0AjtvNBLCc5Vu3XIyYuBvGpaYhXD8q6mATEGWywab5KRTtdzvvEEtGunb/HQuq2/pg6b3NoZeYhYH3QVp6Tg4qMrjgl4BMyIj/beOZnSmosLFUmNT+11SVPEtq1R1LRQRzUOHMcPK9yDphXdd/O4ASqd0TUGPTKjq7s7I6aXqIWrGTNa3hp3zi8tGIpPnvreTw6+ywYAl0v9iMuIwNxsUNw94eLsGhRTfftq7PRPeAZExNKSsUB18VegEPZlcjo3FaEP9HoPPFevLNiM5Y/Ow6Hn7kVT60rhzwlE+0woszoOvw6UFlSCnODPnfrL11O8pxcw9PY5kbktz4EyOu49HREFx5GToXy1Q8zSj3yswhHjlYhvZPIz4DlGXqeJJ49CSOTf8BHn+3SPnMZZD1yL+fA+46f7VQHaapDeoioYTnjQLdIUPTKbzyzSK2OzWSC1WaGST4Fay/GDx9/gZ0+L1f6YkB8QjRM+QUod9hhszmQ3G8yRhqW4dW3tqJIueHejvL93+HrLe63/fum05Vh8/sf4MdieYA04/DCF/DO7h6YOr4byn5egfXHKuHQxaLj4LHonykOxOUWILkremQew+rvdkLGKLaizfjg850wB38tLyB/6WrMRqNEa5sbkd/6ECCvkwfOxMT45Xj++ZU4riTTioKdP2K/V/Co05Viw3/fr8nPb57HW7u6Y5rMzwDr0MyTqmPYtHQtDvoKVFPG4M57xyLnhetx80vrcbTCCruorxbjCez49gtsLhDT1KEeBdp3/G6ncxJV7f2oKeo1EdUNg0VqdTLGXYsr2i7FbeNGYMSoC/B8eX8MytBXn6/Q6Q3iX/m3lIsOer1rrB7dxs9Aj52PYkr/UbjxsxwgdQIeeP56xH56HcYOGYYRI0dg/LVv44A4IPqi08t1OZfvcLTBsLOP4uGpIzF86HDMeGwPRvztH7iqpwH2/CW4f8oIDB0xCqMm3o0tQ/6CeZPSgZh+uPqeaah853IMGzAYIy54Ebbhw5HqdkyttQ36KBg89nadmEb7HI2/dElyGzzzyHO7Ql2/a17NbfbB7/rEmJoy80FnQJQ63m99CJTXyaNw/6vz0WPdPTh/6FCMEOmefv93yr2qHuWMdhgu83PyEAzoPxjTH9tXk58B1qGVJ6bd7+OhOx7Amz/7OsuoR8dZz+HTFy+A5aObMXFQf7HeARgwaDyuffkXVMqb/YKqR57lHGjf8budQk2e+NiP6pAeImoauq5duznk02bKf2If7NmzByZNnKiOJqo/19OMSj3z6ux2e63PBQsWKNM3KocVxuIiVMakIzNRBGZWGxwGEdCIA5PDZoVdBjfVR0A7rHbAIKKd6kFWI0rK7EhITap5iMBuQmlhMSoNSchMS0SU20GuhthG+R46uXzzj/jblNtR/MAiLBitR2GpFfFpGUiMVicV7KYyFJWaEJ2SjpRY5wHXxWEuQ0GJRcyTjgR5/58ITl0BUK1tsMvxehGwqQPkNtkc0BsMqBVTmQKnq9by3bdLDAtt/Z7z+tvmGgHW56PMPNRKj3Z9UEb7yWuFnL+oEOW6JGSkJYiy99omkT7Zr7eUqsvJ9MhPyd86fOeJAxaTBYbYGLEl/thQVVqEEqMDsanpSI2P8siTkOqR5Cev/G+nZ54oQ3zsRyGnp4WZN2+e+ENH1Fud/IPH89O7k1yfRA1h+YoVOHDgQE09k62F+PTfxhC1VLooJKS3FQc75ZFM6KNqDkA6tyBBodMjyivo0EUlIC3dLVCU9LFIadMe7dO1AkVJrMtr+Qaxbn1sCtq09QzIJH1sMjLbtvEZNOliktV5xO4sDqDuwUutbdAbagIjSW5TlI9A0Y2/dNVavtd2hbZ+z3n9bXONAOvzUWYeaqVHuz5I/vJaIefPaId26TJQVAZ4bpPar4uR+Vk7UJT8rcN3nugQHTBQlAyIS2mD9h3aIs0rUJRCqkeSn7zyv52eeSL52o9CTg8RNToGi0RERESkicEiUbhEnY4b3vwPbuunvBwwckRquoiIKCwYLBKFiyEJHXr0xqlp/i63hkGkpouIiMKCwSIRERERaWKwSERERESaGCwSERERkSYGi0RNyoqi7Cyc1PwNtghXlYWVH72HxbvKPfvFdhWL7crzu13BTBOi/J/w5XsfY/0R+YshjbD8oDT8eiv2LsZrTz2GBZ//CqM6rOG4pVctw0VKGRIR+ab3fBc+34xPVD8OWMwW7T2pcBkeuvQi/OnTw/Xc2wKsp7HoirDutZexSvmJErf+gmV4MNB21ZqmAbbBcQjf/PMj7DTrgktDY2jg9Vqz3sGNsxdgKzIRb6qE8guSDck9vaIM17/2ClbLMiQicpGNmehcbRrPLBI1GAt2vPA7THtgNUrVIbVkTMGC71bh9Su61Ho5cvCCWE9Ty3Ru12v+tstjmkbYhmDS0BgaeL25m1bg4Olz8fD8P+L2KwYjSR3eYMKVT0TUbDFYpNbLVoGTB/di/7ESmL1PCVnLkJu1D1knKmCzm2Esr0CVvNLpUmteB2zmClRWWmC1WVFVWQ5jrYVKduiio6CXy1KWW44qq3OM5LAYUW60uJ1NcsBUnIOsfVnIKTGLbwHW4zCjOOcA9u4/gsKqQOekvJftJqTlSHboXdvl4rCgLDcLe/dlI69C2WB1Go1tCCo/BGs5ThwUZZNbDqvDPdXuabDDbBTLtThgN+Yje/9+HCt1W7AWn3Ui0LJ8r9dWfgIHs46gyKQuSE33wTzts4V2Ue+KCozQxUfDXuFcjiwnS8lxZzkVm2rmDTa/NMvBOVqyyZ/hMxXh6IF9OJTvlr461VEiamkYLFKrZNz1FuaOH40ps+fi2gvOxZjLnsUP6imush9fwOWjRuD8y2/AtRdOwIzb5+G6iVfinYPOw6PveXPxxZ2zcOsH+3F82QOYMfp83PFFjjK9B9PPWDBjCh7ZUA7kL8TtE67Ge0dqDq8Fi+/BpMtex365KtsxLLx3KkafdylumDsb0ybeiE9ytddT+du7+OOkYTh35jW48ZoLMGbIeNz83z2oVMZ68bls56iQluNi2lazXYI5+yvcN3Mkxohl3HLDpThv+l+xusA1zQHf2xAoP4Tyn1/EleeOxrQr5+L6S6fgwofXotzVirmnQebz9Mm45x8P4pLJF2DOVZdg4tBJuHtRrmYwo1knAi3Lx3rvevxeXDzjUlxz2VSMmngrPlz9Me4Sw3939RxcMHo4fv/CNh/3IhZh6fypuOzFX3Bi9YM4f+AE3Lt0N765ZzKGj7sQ1910NWaKeS94fC2K5eRB5Jf/cqi5T9H8yyuYM2UWrrz2Klx47gjM+OsKnJSLrVMddU5HRC0Hg0VqfSo24enbX4bp2k+wYf1qrN34OW6O+hSP/+dXmMvXY8E9b8N+1YdYv3k1Vm9Yjr91z8KOkkDzFmLWK0vx+uxe6DD571i2dR3+fWlndSY/xDG45jAsOeBQz5ZVbHoZC9afg6eWr8X3qzZg67JHMDqxIy7xtZ7yDXjyj88hb9abWLt1LVat+wFrXpmI7AX34NWdZmV57nwvW4wIcTk+VW3DC7c8hF+GPYcVm9dgxerN2PzRXPSubm06+N4GyU9+oGIDnr77TViueBer16/CytWL8WivbOx0lY0XnS4fm3/tiieWrceaDRvx4XUJWPbyJ9jt6wSjvzohRoeyLDntttzheGm5qD8bv8K9p27C3//8Jbo/vQzr1mzAsqdH4fAH72JDrXSnY8ozK/G/u/qi/bgnsGr3Zrw4PR3p4x7B4i2bser7tVjz1sWo+uwNLDmuzuIvvwKWg0pXiHUbokXALtK7ZiM2fH4LUr5+CM+uUf968rMOzXpERC0Kg0VqdSq2LcQK0zhcPMiMfTt2YMeeSvQY1Bk5W7bj8M7vsKZqAubOPsd5r5guGQMv+z1cv3znb948GGCIkvPoxP+yc85TV9HJbZBSthVfLd6JQgsQld4VnZPlmNrrqdi+CN9XTcIt1w5EqrJeAzJHX4cr++aKAOAg3K44KrSWHepyfKn85St8Wzged90+GplqCxPboTs6JTj7nULPK+OOJVglyuamOX2RJKcXZTPg0t9Vl403hyMJQy65EGco4+NxxpjBSM8/guM+TpH6L9fQluVwJGPw9PE4RW6foQuGDO0AQ6+puPgcGUXp0a7vIHQz5+J4mTK5F5kvOhGOqfkiAutRM4cjtSwbOzYuw9LdYv7YPOQW+Yp4PQVXDoIjFv0vnY2hac6JEs68GJePsGLb5gMI9IC3dh0lopaEwSK1Osa8PFRUbMHr992L+fPnY/68+XhquRFtE+0ozT2JyvRT0NHt7IguNhEJ8sAv+JvX5y2K9RDT9za8/vw0lLw+B2OGTcWd7+6Az/hCMJ48iar0zujgEQgko2OnRFQWl0Ecxz1oLTvU5fhSnpODioyuOKWBn8yoOCHKJk2kzaNsEhCvlk1tcUhLi1P7RSCTmIRYEe7afZRT4HINflkiJENycqzar0dMXAziU9MQrwbEupgExBlssPme2ZNpD967eRJGT5+LR/79LX7KrZIn9oISfDkkoG0b99OBsUhJjYWlyhTwj4NQ6igRNV8MFqnVicvIQFzsENz94SIsWlTTffvqbPRKToS+5Djy3M4Y2YpzkSeO0ZK/ebsHcXbMgyEK0Q4jyoyuQ7IDlSWlMFc/oxqNzhPvxTsrNmP5s+Nw+Jlb8dS6mvvM3CW0bYvYwmwccx/tKEHOsSqkdshEjDqohu9lh76c2uLS0xFdeBg5FeqAYAXIj5jEBFE2JzzLpkiUlVo29dGg5dqASta8hpf2jcNLK5bis7eex6Ozz4LBdTdAgPwKvhzMKC11y0R7EY4crUJ6p7YiqG24OkpEzReDRWp1kvtNxkjDMrz61lYUKQ8C2FG+/zt8vaUYKf0nYLD1O7z67naUOcShseogvvr3QhxW5vQ/r7yEGJ8QDVN+AcoddthsAU4BJXdFj8xjWP3dTsjjua1oMz74fCfM6jXZkp9XYP2xSjh0seg4eCz6Z4qDerk8t1d7PYkDZmJy0vf45wurcEK5QmnCkUX/wtt7z8BF53WttaNrLTvU5fiSPHAmJsYvx/PPr8Rx5VSkFQU7f8R+j6DFR14FyI/UAZOqy6ZUKZtDWPjmYhxVxtaP/3INH5vJBKvNDJN8KtpejB8+/gI7XcFygPwKrhzknQCl2PDf9/FjsQwIzTj8zfN4a1d3TBvfDfo611EiakkYLFLrkzoBDzx/PWI/vQ5jhwzDiJEjMP7at3FABDDInIqHnrwYxrevxJihIzBq/C1Y2XUi+sXrnffV+ZtX7E7dxs9Aj52PYkr/UbjxMx9PQ7uL6Yer75mGyncux7ABgzHighdhGz5cvVdQxAb5S3D/lBEYOmIURk28G1uG/AXzJqWLMT7Wkzgc8165H73X/xmThw7D8GGjcNFTxzHzX8/hslNr7+aayw5iOTqdyAv1AQePfr3ol9dIk0fh/lfno8e6e3D+0KEYIdYx/f7vlHv/qqfxtQ0B8kO+H/DBJy8UZXMFRg4YiCHn3oyV3SZ43LNYs3zZL8vE2e+kg17vWpgXv+UaeFl+16uPgsGjCHRiGnk/ogadAVHqsjPGXYsr2i7FbeNGYMSoC/B8eX8MypDrEgLlV1DlIFPaDsPPPoqHJw/BgP6DMf2xfRjxt3/gqp5iO+pcR4moJdF16dpNPtomGgznE249e/bEpIkT1dFE9ed6clJ+end2u73W54IFC5TpG53dhNLCYlQakpCZlogo96O3pQIFxVWITklH/MGX8furtuPqb/6Ni9qp4/3M67AaUVJmR0JqEmK847SyVZg/5REkPr8YDw5x3gPnMJehoMSC+LR0JMh72USA4goW7KYyFJWalHSkxDoDFxff67GhsrgApbYEZGQkIdp9m7z4W7a/5dhtVjhkACSG1fSLspPv6lOHKxxWGIsKUa5LQkZagsij2tP42gZ/+aEQZVMoyyY1HckxOtitNuWSrN5r+Q6RNrtHeuyw2sWkInJzW5onjXL1v6wA67XLbdCLgNG1MDGvzQG9wSDS7Bzkodb0Ih+Li1AZk47MRIOyvQ6xva7lB8yvAOXgKkO9pVRdTiYSo9V5VXWtoxS6efPmiT9ERL0Sf516f3p3kuuTqCEsX7ECBw4cEO2aWsfUulbTpCjHc1Y6akX0sUhp0x7t092CPdNR7NpdAEt0IjLbZiIlKg8r3/0KJ845D0PbqtNIvuZV6aISkJbuI1AUjHs34GdbHwzuUfOwhC4mGW3aZogDtNgpxUHb/UCvj00W6Wjj8yDsez0GcUBvh/aZ/gNFyd+y/S1H7xao1PSLxsRtuEIXhYSMdmiXLgMUZUCtaXxtg7/8UIiyyRBlk6zMJJYZJQNFOcJz+bpa6dEjyl+gKGmUq/9lBViv3lAT+Ely3iiNQFGqNb3Ix/S2IlBUHh9Xttd9+QHzK0A5uPp1MSliObUDRamudZSImimvZsTH4YyoFdPl4ds/jcOgoWMxZfoUnDt0Eu7bPhj/9/BF6Oy184Qi98s7Mf28CRh37dfodMsdmJSpjiAiIopwuq5duzlclwTlycWePXvwMjQ1KFm3XJ/eXVgvQ2uxG5F/OBtHC02IbdMNPU9NQ0w9AkXJUZWHfXuPQ9/xdPRsG+v9RxsRkYKXoSmcqi9Dyzomj1RqXeOZRSJv+gS06XYm+g/sjzO71D9QlHRxbXFa377oxUCRiIiaGQaLRERERKSJwSIRERERaWKwSERERESaGCxS61OVhZUfvYdFu7R+lsyK4uws5JlEb8BpG1j+T/jyvY+x/ojr59XCwGGDxWzV+N3jCOaRd25l2OpFWl404P6lzr+4qfZPolaKwSK1ProirH/tFayWP2XhS8EyPHjpRfjTp4fhCDRtQ3Mcwjf//Ag7zU3/GIz58BI8MWcChg4chMFDBqJf/3G44+tcdWwz4J537mWojo5cDhGcWxownV7LCyYv7Fl495qxuOiZn1Drp7ate/DqH8bgyjf2ijCvLvykp777l5h/3WsvY1VT7Z9ErRSDRSJvmVOw4LtVeO2KLq3nyeXyjfj7dfOxuvOteGvRKqxd8z0WvnkbhiWr45ubZlOGFux44XeY9sBqlKpD6sfH8oLJC313jJt4Cg5++y12uH57WmXZuxgL93TCxIm9IF8LHpo6poeIIgqDRWq1bPInz0xFOHpgHw7lV8KuDofo00dHQe92JVh7WpWtAicP7sX+YyUwV59CscNsLIfR4oDdmI/s/ftxrNTHuRlrOU4c3Ies3HJYHW7nfuxmGMvLUeU2i8NiRLnRoq6/Zvm28hM4mHUERSZ1fnWZB/N8pNUH65Et2JJ3Fq689WKc3TENKalt0G3wJbhyfIcg0iE5YCrOQda+LOSUmNWzSDXpc+VddlPlnZjfswx9pU/SGi74TJe3ILfRYUZxzgHs3X8EhVWusaLczBWorLTAarOiqlIsx31FIeeL1vJq1+fadDh14kz0L1yBb7Yb1WGSGbuWLEN+/4swuZt6uNDMF++8DD49mvtXUHVP1YT7C1Fro/fY18XOTdRamH95BXOmzMKV116FC88dgRl/XYGTchcwbcOCGVPwyIaa+6A0pxWMu97C3PGjMWX2XFx7wbkYc9mz+EGeRjH9jAXTJ+OefzyISyZfgDlXXYKJQyfh7kW51Xta+c8v4spzR2PalXNx/aVTcOHDa1Hu+hMufyFun3A13jtSs18WLL4Hky57HfvlEU1d/l2P34uLZ1yKay6bilETb8WHqz/GXWL4766egwtGD8fvX9gG98O/L1Fte6BL9E588ckPKPY+WgZKh+0YFt47FaPPuxQ3zJ2NaRNvxCfy6rWavnkvPokrJ03FZdfMwczRwzDtgeU4qa6j0fLOvQy10qc1XNBMl7cgtrHyt3fxx0nDcO7Ma3DjNRdgzJDxuPm/e1CJXHxx5yzc+sF+HF/2AGaMPh93fJGjzFO3fNFYno/67Iuu03hcMKwKa5dsQ4U6DFU78O2ikzhn1jicovOTLp95GXx6NPevQHXPXRPuL0StDc8sUuukK8S6DdHi4LUaq9dsxIbPb0HK1w/h2TU+IgJ/01ZswtO3vwzTtZ9gw/rVWLvxc9wc9Ske/8+vMMtZdfnY/GtXPLFsPdZs2IgPr0vAspc/wW559qNiA56++01YrngXq9evwsrVi/For2zsLFHW6iSOezWHPsn5yzcucvnbcofjpeUibRu/wr2nbsLf//wluj+9DOvWbMCyp0fh8AfvYoP7Mn1pMwOPPXs58N4cjJtyK15Zd1xJfzU/6ajY9DIWrD8HTy1fi+9XbcDWZY9gdKIySqSvEOvXR+POrzdg3dpN2PTFrUhf+DCeWdsEeafSSp9mugOky5vfbSzfgCf/+BzyZr2JtVvXYtW6H7DmlYnIXnAPXt2ZiUteWYrXZ/dCh8l/x7Kt6/DvSzvXI186+l5e0NpjzIyBKFu+ED+WOYcYt3+DZaVDRQDXwW+6inzmZZDpCbQv+ql7tQSYtsH2F6JWhsEitU6OWPS/dDaGpjl3gYQzL8blI6zYtvkAaj006mfawm0LscI0DhcPMmPfjh3YsacSPQZ1Rs6W7ZD33DscSRhyyYU4I17OGY8zxgxGev4RHK8UB+IdS7CqagJumtMXSfLmLV0yBlz6O/RTpg2Ow5GMwdPH4xR5M5mhC4YM7QBDr6m4+BwZ9ejRru8gdDPn4rh68NemQ5tz/4LPV3+Fh0bl4925EzDpj+9hdxCnWKKT2yClbCu+WrwThRYgKr0rOqv3OjoccRjwhzkYlu6WdyNF3m3a32R5p5U+reEVAdLlze82bl+E76sm4ZZrByJVuUHPgMzR1+HKvrkiMDoIm/hukGWn/qSW+D/g+v3li1y+9/JC0WbULIy0rME3P8pArRzblqwHxl2EUW38p6tEsw4EkZ5Q9sV6arj9hah1ce6dRK1OAtq2UU9/KWKRkhoLS5VJHMC9aU9bnpeHiooteP2+ezF//nzMnzcfTy03om2iXb2fKw5paXHKXFJUYpKY26a8lqbixElUpnVGB7dF62ITEC8PZEGLRXJyrNqvR0xcDOJT0xCvHpR1MQmIM9hgC/I9OPqUM3DRQx9j9dInMWjnk7jz+S0BL8nF9L0Nrz8/DSWvz8GYYVNx57s7UHOsFXnX1jPvklNiYa0yN1neaaVPa7gxYLq8+dnGkydRlS7SmaCOUiSjY6dEVBaXQcRVtQRev3a+1FvGCFw4PgZbFm9FSdmP+HpZJYbPGIp0Mcpfuhzn+KsDgYSyL9ZXw+4vRK0Fg0VqpcwoLXV7SYi9CEeOViG9U1txKPamPW1qRgbiYofg7g8XYdGimu7bV2eje4CzOjGJCdCXnECe29OntqLjyHOtyhCFaIcRZUbXIdOBypJSkZoQTxfVQcyp03HT77sj9+edOKkPlI5odJ54L95ZsRnLnx2Hw8/ciqfWue5HM6HEI+8KcCi7EhmdGznvPGilz/fwuJDTpb2N6W3bIrYwG8fcbxd0lCDnWBVSO2QiRh3kLvT1N6RUDJ4+ArbVX2HJoq+wOnoiLhiUoozxny5/dSAQP/tiKPtAGPcXopaOwSK1SjpdKTb89338WCwPLGYc/uZ5vLWrO6aN71Zrp/A3bWq/yRhpWIZX39qKIuWGezvK93+Hr7cUyy9+pQ6YhMHW7/Dqu9tR6hCHtqpDWPjmYhxVxyO5K3pkHsPq73YqDxzYijbjg893whzqtUWXqmPYtHQtDlY/vVCj8uf/4tkPtuBImRl2uw1V+T9iyaocZJ51Otqk+E9Hyc8rsP5YJRy6WHQcPBb9M8XBv9x5zkynK8Pm9z+oybuFL+Cd3T0wtbHzzo1W+rSGJ4eYLn/bmDxgJiYnfY9/vrAKJ5SndE04suhfeHvvGbjovK6irhkQnxANU34Byh122GyOkNfvqfbyPPipAy7JA2dhQvyP+PSzHcicNgv91ZN+/tKlXQcCpEfwuy+Gsg809P5CRNUYLFKr5EA7DD/7KB6ePAQD+g/G9Mf2YcTf/oGrehqU8Tq9HjoxleR32tQJeOD56xH76XUYO3gYRowcgfHXvoMD4iAp6fTy0/0AqYNerx68MqfgwScvhPHtKzBywEAMOfdmrOw2oea+u5h+uPqeaah853IMGzAYIy54Ebbhw9V735xqLV8fBYPHXq0T04hO9Jl2v4+H7ngAb/5c+4yPIaoMW/55DSYNHoD+AwZg4Jgb8XWbm/Hsn0chKUA67PlLcP+UERg6YhRGTbwbW4b8BfMmyQuXImWONhgm827qSAwfOhwzHtvTNHknuMpQK32a6Q6QLm9+tzFxOOa98hf0Xv9nTB46FMOHjcJFTx3HzH89h8tOlQWlR7fxM9Bj56OY0n8Ubvwsp3754mt5gisv/NWBaon9MWtKEn79NR7nTTu75ky7n3Rp1wH/6ZH87l/B7AM6sSz5EEsD7y9EVEPXpWs3+biY+F904r+ePXti0sSJ6mii+nM9jajUMa/ObrfX+lywYIEyfWOy26xwiAOF3lKKghIL4tMykRitjhT7gV2+900eSMRRw/+0KrsJpYXFqDQkITMtEVHq0cYh5rWry3EOsMNqF8GZOEJVH5AsFSgsrkJ0ajqSY3SwW23KJTXX8d9hLlPXm44EeT+VODhHqSNrLd8ux+vFAdA1s1ifzQG9wSCW54DFZIEhNsb3X4kOG6pKC1FiikJSWioSYzyn8pcOu6kMRaUmRKekIyXWGdTA9CP+NuV2FD+wCAtG61FYahXzZjRR3nmVoa/0CVrDFRrp8hDsNorcqiwuQKktARkZSYj2WpbDakRJmR0JqUmozvZ65Ivn8tzzIkAdcBF1wWrTiax0y2sXjXT5y0vt9Ij5gti//NY9dX5XfjTc/uIc1NTmzZsngn+R7zr5R4Dnp3cnuT6JGsLyFStw4MABZx2Te79a1/y2F0QtlV4EFPKAoYtJQZu23gcnsWOo4yX/06r0sUhp0x7t0z2DCp3bchQ6PaLcgx0pOhEZYrnJSpQg1h1VEyhKuphksV4ZgIidVhzoXAc+qdby9YaaA58k1xflOvDpEO0vSNAZEJfaFu3bpdcKFCV/6dDHJiOzbZvaAZdgkNsTK/POVxAlNEreeZWhRvr8pVsrXb4E3EYRsMSntUP7zNqBoqSLSkBaulugKNUjXzyX554XAeqAi6gLUb4CRUkjXf7yUjs9Yj6139/+5bfueeVHw+0vROQSsM0gIiIiotaLwSIRNY6o03HDm//BbaG8OLK5aQ3bSEStHoNFImochiR06NEbp6b5uMTbUrSGbSSiVo/BIhERERE5yWdS3V4aIDFYJCIiIiJNDBaJiIiISBODRSKioFhRnJ2FPJP6NSgB5sn/CV++9zHWH5G/XtJAqrKw8qP3sHhXuWd/UOmvyzYG4LGNjbD8eom09BBFJgaLRBQhHLCYLd63ykSOgmV48NKL8KdPDwefxkDzOA7hm39+hJ3mBnyxn64I6157GavyvPqDSX+taRqgTNy3sS556FMOPrlpDIYOHap0w0eNxeSLrsP9ry3DgbIQltxg6SFq2fgLLtToZN1yfXp34foFFyKiSMRfcKFwUn7BZb/6Cy6ybqmfPLNIRERERJoYLBIRERGRJgaLRERERKSJwSIRERERaWKwSERERESalGCx+pUBfHcAERERUavnHhLyzCIRERERaWKwSERERESaGCwSERERkSYGi0RERESkicEiEREREWlisEhEREREmhgsEhEREZEmBotEREREpInBIhERERFpYrBIRERERJoYLBIRERGRJhEs8gehiYiIiMibjBEdPLNIRERERNoYLBIRERGRJgaLRERERKSJwSIRERERaWKwSERERESaGCwSERERkSYGi0RERESkicEiEREREWlisEhEREREmhgsEhEREZEmBotEREREpInBIhERERFpYrBIRERERJoYLBIRERGRJgaLRERERKSJwSIRERERaWKwSERERESaGCwSERERkSYGi0RERESkicEiEREREWlisEhEREREmhgsEhEREZEmBotERERE5KRTPxXOLwwWiYiIiEgTg0UiIiIi0sRgkYiIiIg0MVgkIiIiIk0MFomIiIhIE4NFIiJqfhxm2H/9BVVvL0bFy8tQuWgfbGV2ZZTtkxdQ8IflsDmUr//f3v3HyHHWdxz/7u39snO+sx0bBAHbdzZUUUKlJEVUEBzEAQpJREEtJKogLUUt0NIUqaUIiT/SSiURMSAEAkJAKAGhVMSBhAQqyz+a2EmdFOdXk4Y4ds5xSLFj36+9893u3e5t5/vMPPaTyczeetc7sz/er+zc88zzzN7Mniff/dzs3h2AOhEWAQCt5fhTMvuRL8r4dT+V+d1jUjzwpMzf9H3J/eT/zHRGlrws6QdHAPUjLAIAWsfMczJ7/W1S2PBRWfubm2XNj/9Whn74T7J2782y+vrXBxsBOJcIiwCAFrEkxTt/LvPFd8vgze+UbF8wbGQlc15P0A+ZOCL5bT+S6eu/IdP/8DOZP5ALJjzFWSne/QvJ/c03ZerTt8upXSeCCc8rB2X+xltl6vpvS+5bj0lpLhgHOgxhEQDQGsoTsrj7mGSveod0rwzGlvPiXpl+/y1y6vD50vuxy6X3gt/L3J//q0zfM+FNzsvCTV+VqR/kpOcjW6X/8gFZen5azFsdj+6T6au+I/mFLdJ/3R9K18N3ytQNe6VU0kmgswRhkXcBAwCaXHFWSsdL0vWmwVf/RbJYc7LwvV9L8fK/kjXf/ZCsuObtsuKf/06G/nGdLHxrjywWZqT45LRkP/wBWfHBS6T/E38qqz6zxfvcer//kOLop2ToK6PSf9VWGfj6hyT72H9K/jDvhUSbi4iEXFlE0ymX+eYFQIRMt2R6y1I+VQwGllGakMXH5yT77i3Ok11Wsn/8Fsm+8jspTa+Tvj/bIqVtN8vEDb+Swgvz/iZF736PTUr5qV9L7tpbZMpbJj+/T0qlnCz9fsHfpgGofWhWhEUkLpN57TUBd2xpie/cAUToXiPdF6+U0v7DUlWV0PBV9rYshrf26o3WnEyXZK/7nJy/66+lv+8JmbnySzJ12+/Ei6NeIeqW7tFRWfnZD5rlvM9eI6u++RfSP9y4p0239i1XJ4EkERaRqnDx0/V8Ph+sAYDrPOn92B9J1567Zfae8WDMEb4yp+HybV64fOB5WTo9VZLSI976m0d02pORzJsvkpW3fEnW/MtGWfz3/5ZSebV0/0GflI57gfE9F0uvXbZeJD0bes1naQStfVE1EUhbdmj16huDvrF27VoZGRkJ1oDGsS+5hNtLL71UBgYGTB8AXJkL3iI95z0rp768XeYPTEk5NyGlA/8j+VvvkfzxTdJ/6aCUn9kv80+vlxXXXijdmzOy8LU7Ze6pknRlcrJ4z89l9nuT0nfTx2XFhpMy9/c/kcLJJSkfPyKFu5+UpS3vkpVXbpTuN5yS/E3bJT/W5cXJGSnu2SWzt74iPdds9j5PcDDn2MTEhOzfv98ExPDS1eUdh9cqO2b7wLnywtiYTE5M+udVcJ5plyuLaDrj4xFXDADA6JXuT31ezt/xaVnx1rwUdz0mhf86JvK298jKD7/B32T9W6X/va8z3cyWURnacYOsfOMxyd/5kCxMjsjAvV+WVVu9b0i7hqT3AxdI+SEvXP7styJXflLW/Nsl5okxc8mfyJpf/qX0dR2S/I8flMLR82XFFy6XbAOfNal9aFaZDRs3ls0VHb157eYtm+V9o6PBNFA/98phuK/v0bGt7W/dulWuvvpqsx0AdIr7779fHnzwQXM1R68k2quJtjVXezzhPnCu7Ny1Sw4fOuyfV8F5pl2uLCJVbqGz/ccff1xK/DIzAB1Ea57WPhVVF4E0ERaRqLjC547ncjmZmpoK1gCg/WnN09pnVVMrgaQQFtFwtridTfF77rnngh4AtL+omrdczYybB841wiJS5RY77dtl3759sri4GMwAQPvSWqc1z62BltsH0hKExeBk5JxEQuIKom1PnDghL730kukDQDvTWqc1T4VrodK+uw4kx/+hVK4sInFxRS88vnfvXikWq/yzXgDQgrTGaa1zVVsjgaQQFpGISkUuPKfr+qsinn76aXnxxReDUQBoP1rjtNa5v3TbOpu6CTQSYRGJiipwOuYurt27d8v8fPDH/QGgjWht0xrnqlQPVdQY0GiERaTCFryo1l0OHjwoTzzxhJkDgHaitU1rXLjuqbgWSANhEamJK35ucdRl+/bt8vLLL5sxAGgHWtO0ttk6p2wbFjcOJIWwiKagxdD9k1bat3Rdi+r09HQwAgCtS2uZDYpWuP65c0DaCItIjC1+cW2Yjtvl6NGjsmPHDsnn88EsALQerWFay7SmuTUuih2Pa4GkEBaRqnDRc7+7dud0/JFHHpGdO3cSGAG0JK1dWsO0loVfPbGLO67cOgikhbCIVNgC6Lbhoqjr7ssx2u7Zs4fACKDl2KCoNcytaW6Ns3Td3cZtgTQQFpG6uEJpF1tMbV+L7b333mv+8D4ANDutVVqztHaF65nt28UVXgfSQlhEoqKKnx2zxTK8hOe0wOrLOLfffjs/JQ2gqWmN0lplX3p2a5ly193FzoVFjQGNRlhEatyiFy6O2tol6rtvHdM3iG/btk0efvhhfnE3gKaiNUlrk9YorVVxdcxdV+FWuX2g4SJON8IiEhdV+OIKo+3HFVpd7rrrLrnjjjvk0KFD/C1pAKnSGqS1SGuS1iZbp6Lql9K+Fde3osaAJGSHVq++Megba9eulZGRkWANaKyzKYhx2+oyPj4ujz76qBw7dkwGBwdlYGBAstlssBUANNbCwoIcOXLEvDfxvvvuk4mJiaqCYnhxx23fcvtAI7wwNiaTk5PinYF6wunNnHeZDRs3lstlbwvvg/63efNmed/oqH8voEH8k+4Mu65tuO8uamlpKXLOLjq/fv16ueKKK+TCCy+UoaEh6e7uNvcFgHNFryLqL9h+9tln5YEHHpATJ05EhkN3qTUoqvA6cK7t3LVLDh8+TFhE8/BPPF+4b9dt311UODAqd91dNCxedtllMjw8LOvWrTNXHvv7+08XdQCoROuI1hz99Te5XE5OnjwpY2NjcuDAARMWzZNpxKLc9bMJiiquDzQKYRFNyT/5fLYf1YaXasaVFngVtY3bAkAcG9Tc1i4qHALdvrssNx7VKrcPNBJhEU0pHNbiwpxtK4U/Xey8cueUe1+3BYDlhEOcGxDdVtlXLdw5dz3uvuHWCq8DjUJYRNMKh7ZwmAu3UaHPLlHryp1zxY0DwHLhzR03T6jBEreuCIpoZoRFNDU3rEX1o9rwWNyVQ3fbsLhxALDiApt5Eg3mwm1UKIzb1rYqrg8kgbCIphYObe56VN9tqx2z4voAEGW5MOe21Y5ZcX0VXgcajbCIphcV3OxYVMCLa5U75o6rqO0BoBIb3KICXdRceKyabVxRY0CjERbREqICnDsW1a92TEXNA0A1osJdVL/aMeX2ragxIAluWDTnobeYhrCIZhMX5OKCXtR43DYqPAcA1aoU9KLm4rYJj1tx40ASCItoKZUCnZ0Lb+Oux/XDKs0BgKoU4Ny5uL6y69V+LiANhEW0pGqCXtw27ng12wBAlLgQ544vt03cvKo0BySJsIiWVU2gs9sst23UfDWfH0Bnigpyy4U7O19NCKxmGyAphEW0vGpDnd2OEAggKWcTEBUhEc0oLiz6vzUUaAFnU4R10V+K6/7ZrWrvDwCVuDUlXGeqUe12QLPgyiJaFlcOAbQKAiJaAVcW0XbO5jt5AEgDdQrtgLCIlmeLMUUZQNqoR2hHhEW0nXCxpmADaARqDToF71kEAAAA71kEAADA2coQFgEAABCPsAgAAIBYhEUAAADEIiwCAAAgFmERAAAAsQiLAAAAiEVYBAAAQCzCIgAAAGIRFgEAABCLsAgAAIBYXljUvwDo4e+fAwAAIGCjIVcWAQAAEIuwCAAAgFiERQAAAMQiLAIAACAWYREAAACxQmEx+MloAAAAdCYNg04g7DJ9EiIAAEBH8zPia0Ohf2WxbD6a6WKpJIVCwR8AAABA29PsVyyWgrVX6wpipP0ghXxBcjMzpg8AAID2p9kvX8gHa8HVRa/R3un3LAbDUlgoyEwuF6wBAACg3Wn2WygsmL6fCc8ExiAsnhmYnZmVsbEjMjc3548BAACgbWnm0+w3Ozt7OhL6/BUvLJ4JimpxcVFOnjwpB59/3h8AAABA29LMp9lPM6DhZcIzmTEj2dWr19yYMSNnhvU16/JSWebn52VwcFB6enqCGQAAALQDvaL4zDP/K0dfOirj4+NmLKOh0FtMY1Kj93HTpuFyWbz/9Cei/Z7f9wwNDcq6detkZHhYVq1aZYJjX1+fPwkAAICWoj/1nMvlZGZmRl4YGzNXFHPTwc+quAExCIxmZNOwFxa9cGg+RITGnp5uWTWwSnr7eqW/r1+y2S5vxmxaQcXJimq+Z+27rEPyO22th5nK0SauQ049T2f8e6bDVOT2l8LD7JCvrKfGR9ox/ybJ79UPWkmrsFNvSmf11+MUCnkpLCyY9yguLhbNsZ4JiW4/WN80PGJSoR8OvScDvQXr/s0Z9z+cbuOY+VrVeNc09lmPmo+35mOt/UGm8OVprX+TVtMhDxPL8J4AEM88WSatjl3WftfWeZxp/JuYl2STVscuK36NvCkzbwOgP2Ba/6VnO+bOB/1Xh0X9bNp6HXN7df81bQxzn6TVsctKj6WiVB5mBxxrPVLYZT1S+RoBKTFPPp2gxodZ31cnlZ3WJJXzoOYvTx3H2mT7NJ/X3NzW++iO6bod1/uYSa8/7IVF84SlN9Nz+x53TP/zB80tTnDP2tR4107ZZ63qOtZapbDLenbaYoeLBknj/xW/LCNWCl+e+nZZ471b6DRI5ZytY5c1H2877dNMeVt4rdnudOuO+X2zpn3T9drhES8sam0MQqHb929n2vBVxjhmPml17LLm403lYXbAsdYjhV3Ws9NUDrdTtNIX11Tk9pfOw0xhr6nsMuGd1rG7xI9V1bjLuo41jX1WEoS/17zkbOb89biXo72wuNnLgFpVvad2U1y19TrmFrQmPOqUtnauAv8T1STYU7Jq3GVdx5rww2ylY61HKudPPVrscGvXMQ80YV4l7wQt9jDNE23SEt5lqz3Gmo+3xfZZ6c5mxvtgjssJguExs6Z909W+yP8DLhJiwt4JaCoAAAAASUVORK5CYII=;" vertex="1" parent="1">
          <mxGeometry x="1297" y="220" width="651" height="525" as="geometry" />
        </mxCell>
      </root>
    </mxGraphModel>
  </diagram>
</mxfile>
